Escrow.ufo
<glyph name="quotedbl" format="2">
  <advance width="452"/>
  <unicode hex="0022"/>
  <outline>
    <contour>
      <point x="126" y="383" type="curve"/>
      <point x="149" y="383" type="line"/>
      <point x="179" y="583"/>
      <point x="192" y="611"/>
      <point x="192" y="643" type="curve" smooth="yes"/>
      <point x="192" y="675"/>
      <point x="165" y="702"/>
      <point x="135" y="702" type="curve" smooth="yes"/>
      <point x="105" y="702"/>
      <point x="77" y="675"/>
      <point x="77" y="643" type="curve" smooth="yes"/>
      <point x="77" y="611"/>
      <point x="93" y="587"/>
    </contour>
    <contour>
      <point x="309" y="383" type="curve"/>
      <point x="332" y="383" type="line"/>
      <point x="362" y="583"/>
      <point x="375" y="611"/>
      <point x="375" y="643" type="curve" smooth="yes"/>
      <point x="375" y="675"/>
      <point x="348" y="702"/>
      <point x="318" y="702" type="curve" smooth="yes"/>
      <point x="288" y="702"/>
      <point x="260" y="675"/>
      <point x="260" y="643" type="curve" smooth="yes"/>
      <point x="260" y="611"/>
      <point x="276" y="587"/>
    </contour>
  </outline>
</glyph>
<glyph name="dollar" format="2">
  <advance width="561"/>
  <unicode hex="0024"/>
  <outline>
    <contour>
      <point x="282" y="-13" type="curve" smooth="yes"/>
      <point x="416" y="-13"/>
      <point x="511" y="78"/>
      <point x="511" y="207" type="curve" smooth="yes"/>
      <point x="511" y="318"/>
      <point x="458" y="366"/>
      <point x="280" y="417" type="curve" smooth="yes"/>
      <point x="177" y="447"/>
      <point x="144" y="480"/>
      <point x="144" y="557" type="curve" smooth="yes"/>
      <point x="144" y="628"/>
      <point x="202" y="674"/>
      <point x="291" y="674" type="curve" smooth="yes"/>
      <point x="365" y="674"/>
      <point x="440" y="640"/>
      <point x="440" y="607" type="curve" smooth="yes"/>
      <point x="440" y="581"/>
      <point x="379" y="566"/>
      <point x="379" y="519" type="curve" smooth="yes"/>
      <point x="379" y="494"/>
      <point x="398" y="475"/>
      <point x="425" y="475" type="curve" smooth="yes"/>
      <point x="463" y="475"/>
      <point x="493" y="513"/>
      <point x="493" y="562" type="curve" smooth="yes"/>
      <point x="493" y="649"/>
      <point x="415" y="702"/>
      <point x="288" y="702" type="curve" smooth="yes"/>
      <point x="160" y="702"/>
      <point x="68" y="618"/>
      <point x="68" y="499" type="curve" smooth="yes"/>
      <point x="68" y="391"/>
      <point x="117" y="343"/>
      <point x="280" y="292" type="curve" smooth="yes"/>
      <point x="411" y="251"/>
      <point x="436" y="228"/>
      <point x="436" y="146" type="curve" smooth="yes"/>
      <point x="436" y="69"/>
      <point x="371" y="17"/>
      <point x="274" y="17" type="curve" smooth="yes"/>
      <point x="196" y="17"/>
      <point x="103" y="61"/>
      <point x="103" y="99" type="curve" smooth="yes"/>
      <point x="103" y="125"/>
      <point x="165" y="143"/>
      <point x="165" y="190" type="curve" smooth="yes"/>
      <point x="165" y="215"/>
      <point x="144" y="236"/>
      <point x="119" y="236" type="curve" smooth="yes"/>
      <point x="78" y="236"/>
      <point x="47" y="198"/>
      <point x="47" y="148" type="curve" smooth="yes"/>
      <point x="47" y="55"/>
      <point x="146" y="-13"/>
    </contour>
    <contour>
      <point x="251" y="-122" type="line"/>
      <point x="251" y="760" type="line"/>
      <point x="221" y="760" type="line"/>
      <point x="221" y="-122" type="line"/>
    </contour>
    <contour>
      <point x="341" y="-122" type="line"/>
      <point x="341" y="760" type="line"/>
      <point x="311" y="760" type="line"/>
      <point x="311" y="-122" type="line"/>
    </contour>
  </outline>
</glyph>
<glyph name="percent" format="2">
  <advance width="771"/>
  <unicode hex="0025"/>
  <outline>
    <contour>
      <point x="147" y="0" type="line"/>
      <point x="563" y="660" type="line"/>
      <point x="534" y="648"/>
      <point x="487" y="637"/>
      <point x="440" y="637" type="curve" smooth="yes"/>
      <point x="403" y="637"/>
      <point x="367" y="642"/>
      <point x="336" y="651" type="curve"/>
      <point x="352" y="627"/>
      <point x="361" y="595"/>
      <point x="361" y="555" type="curve" smooth="yes"/>
      <point x="361" y="428"/>
      <point x="291" y="289"/>
      <point x="167" y="289" type="curve" smooth="yes"/>
      <point x="105" y="289"/>
      <point x="36" y="356"/>
      <point x="36" y="459" type="curve" smooth="yes"/>
      <point x="36" y="578"/>
      <point x="144" y="702"/>
      <point x="244" y="702" type="curve" smooth="yes"/>
      <point x="317" y="702"/>
      <point x="306" y="670"/>
      <point x="437" y="670" type="curve" smooth="yes"/>
      <point x="510" y="670"/>
      <point x="549" y="684"/>
      <point x="592" y="702" type="curve"/>
      <point x="620" y="682" type="line"/>
      <point x="189" y="0" type="line"/>
    </contour>
    <contour>
      <point x="541" y="-12" type="curve" smooth="yes"/>
      <point x="479" y="-12"/>
      <point x="410" y="55"/>
      <point x="410" y="158" type="curve" smooth="yes"/>
      <point x="410" y="277"/>
      <point x="518" y="401"/>
      <point x="618" y="401" type="curve" smooth="yes"/>
      <point x="691" y="401"/>
      <point x="735" y="347"/>
      <point x="735" y="252" type="curve" smooth="yes"/>
      <point x="735" y="122"/>
      <point x="665" y="-12"/>
    </contour>
    <contour>
      <point x="190" y="325" type="curve" smooth="yes"/>
      <point x="267" y="325"/>
      <point x="328" y="447"/>
      <point x="328" y="558" type="curve" smooth="yes"/>
      <point x="328" y="622"/>
      <point x="307" y="674"/>
      <point x="251" y="674" type="curve" smooth="yes"/>
      <point x="194" y="674"/>
      <point x="133" y="532"/>
      <point x="133" y="415" type="curve" smooth="yes"/>
      <point x="133" y="348"/>
      <point x="160" y="325"/>
    </contour>
    <contour>
      <point x="564" y="24" type="curve" smooth="yes"/>
      <point x="642" y="24"/>
      <point x="702" y="146"/>
      <point x="702" y="257" type="curve" smooth="yes"/>
      <point x="702" y="321"/>
      <point x="681" y="373"/>
      <point x="625" y="373" type="curve" smooth="yes"/>
      <point x="568" y="373"/>
      <point x="507" y="231"/>
      <point x="507" y="114" type="curve" smooth="yes"/>
      <point x="507" y="47"/>
      <point x="535" y="24"/>
    </contour>
  </outline>
</glyph>
<glyph name="ampersand" format="2">
  <advance width="746"/>
  <unicode hex="0026"/>
  <outline>
    <contour>
      <point x="218" y="589" type="curve" smooth="yes"/>
      <point x="218" y="548"/>
      <point x="243" y="494"/>
      <point x="293" y="426" type="curve" smooth="yes"/>
      <point x="501" y="142" type="line" smooth="yes"/>
      <point x="540" y="90"/>
      <point x="572" y="67"/>
      <point x="607" y="67" type="curve" smooth="yes"/>
      <point x="636" y="67"/>
      <point x="657" y="96"/>
      <point x="665" y="149" type="curve"/>
      <point x="689" y="146" type="line"/>
      <point x="670" y="53"/>
      <point x="615" y="-10"/>
      <point x="552" y="-10" type="curve" smooth="yes"/>
      <point x="500" y="-10"/>
      <point x="459" y="18"/>
      <point x="409" y="87" type="curve" smooth="yes"/>
      <point x="197" y="378" type="line" smooth="yes"/>
      <point x="153" y="439"/>
      <point x="133" y="489"/>
      <point x="133" y="538" type="curve" smooth="yes"/>
      <point x="133" y="636"/>
      <point x="201" y="701"/>
      <point x="302" y="701" type="curve" smooth="yes"/>
      <point x="375" y="701"/>
      <point x="432" y="649"/>
      <point x="432" y="581" type="curve" smooth="yes"/>
      <point x="432" y="520"/>
      <point x="388" y="467"/>
      <point x="286" y="404" type="curve"/>
      <point x="272" y="422" type="line"/>
      <point x="326" y="453"/>
      <point x="364" y="520"/>
      <point x="364" y="584" type="curve" smooth="yes"/>
      <point x="364" y="644"/>
      <point x="335" y="678"/>
      <point x="286" y="678" type="curve" smooth="yes"/>
      <point x="244" y="678"/>
      <point x="218" y="644"/>
    </contour>
    <contour>
      <point x="236" y="-12" type="curve" smooth="yes"/>
      <point x="135" y="-12"/>
      <point x="44" y="74"/>
      <point x="44" y="170" type="curve" smooth="yes"/>
      <point x="44" y="257"/>
      <point x="96" y="331"/>
      <point x="201" y="395" type="curve"/>
      <point x="216" y="374" type="line"/>
      <point x="169" y="349"/>
      <point x="141" y="305"/>
      <point x="141" y="254" type="curve" smooth="yes"/>
      <point x="141" y="153"/>
      <point x="219" y="51"/>
      <point x="296" y="51" type="curve" smooth="yes"/>
      <point x="338" y="51"/>
      <point x="364" y="64"/>
      <point x="411" y="108" type="curve"/>
      <point x="425" y="87" type="line"/>
      <point x="356" y="8"/>
      <point x="318" y="-12"/>
    </contour>
    <contour>
      <point x="467" y="168" type="line"/>
      <point x="519" y="232"/>
      <point x="557" y="310"/>
      <point x="557" y="353" type="curve" smooth="yes"/>
      <point x="557" y="380"/>
      <point x="525" y="398"/>
      <point x="468" y="403" type="curve"/>
      <point x="468" y="423" type="line"/>
      <point x="706" y="423" type="line"/>
      <point x="706" y="403" type="line"/>
      <point x="660" y="395"/>
      <point x="648" y="385"/>
      <point x="599" y="313" type="curve" smooth="yes"/>
      <point x="563" y="261"/>
      <point x="519" y="199"/>
      <point x="483" y="147" type="curve"/>
    </contour>
  </outline>
</glyph>
<glyph name="quotesingle" format="2">
  <advance width="269"/>
  <unicode hex="0027"/>
  <outline>
    <contour>
      <point x="126" y="383" type="curve"/>
      <point x="149" y="383" type="line"/>
      <point x="179" y="583"/>
      <point x="193" y="609"/>
      <point x="193" y="642" type="curve" smooth="yes"/>
      <point x="193" y="674"/>
      <point x="166" y="702"/>
      <point x="135" y="702" type="curve" smooth="yes"/>
      <point x="104" y="702"/>
      <point x="76" y="674"/>
      <point x="76" y="642" type="curve" smooth="yes"/>
      <point x="76" y="609"/>
      <point x="93" y="587"/>
    </contour>
  </outline>
</glyph>
<glyph name="parenleft" format="2">
  <advance width="334"/>
  <unicode hex="0028"/>
  <outline>
    <contour>
      <point x="257" y="-143" type="line"/>
      <point x="175" y="-83"/>
      <point x="35" y="73"/>
      <point x="35" y="295" type="curve" smooth="yes"/>
      <point x="35" y="518"/>
      <point x="175" y="674"/>
      <point x="257" y="733" type="curve"/>
      <point x="273" y="711" type="line"/>
      <point x="195" y="656"/>
      <point x="167" y="569"/>
      <point x="167" y="295" type="curve" smooth="yes"/>
      <point x="167" y="21"/>
      <point x="195" y="-65"/>
      <point x="273" y="-121" type="curve"/>
    </contour>
  </outline>
</glyph>
<glyph name="parenright" format="2">
  <advance width="334"/>
  <unicode hex="0029"/>
  <outline>
    <contour>
      <point x="77" y="-143" type="curve"/>
      <point x="61" y="-121" type="line"/>
      <point x="139" y="-66"/>
      <point x="167" y="21"/>
      <point x="167" y="295" type="curve" smooth="yes"/>
      <point x="167" y="569"/>
      <point x="139" y="655"/>
      <point x="61" y="711" type="curve"/>
      <point x="77" y="733" type="line"/>
      <point x="159" y="673"/>
      <point x="299" y="517"/>
      <point x="299" y="295" type="curve" smooth="yes"/>
      <point x="299" y="72"/>
      <point x="159" y="-84"/>
    </contour>
  </outline>
</glyph>
<glyph name="asterisk" format="2">
  <advance width="524"/>
  <unicode hex="002A"/>
  <outline>
    <contour>
      <point x="128" y="283" type="curve" smooth="yes"/>
      <point x="107" y="298"/>
      <point x="102" y="331"/>
      <point x="119" y="353" type="curve" smooth="yes"/>
      <point x="136" y="375"/>
      <point x="175" y="391"/>
      <point x="249" y="466" type="curve"/>
      <point x="141" y="481"/>
      <point x="101" y="468"/>
      <point x="75" y="476" type="curve" smooth="yes"/>
      <point x="50" y="484"/>
      <point x="34" y="515"/>
      <point x="43" y="541" type="curve" smooth="yes"/>
      <point x="51" y="563"/>
      <point x="81" y="580"/>
      <point x="107" y="571" type="curve" smooth="yes"/>
      <point x="133" y="562"/>
      <point x="161" y="530"/>
      <point x="254" y="482" type="curve"/>
      <point x="236" y="589"/>
      <point x="209" y="623"/>
      <point x="209" y="650" type="curve" smooth="yes"/>
      <point x="209" y="677"/>
      <point x="234" y="702"/>
      <point x="260" y="702" type="curve" smooth="yes"/>
      <point x="286" y="702"/>
      <point x="309" y="677"/>
      <point x="309" y="650" type="curve" smooth="yes"/>
      <point x="309" y="623"/>
      <point x="287" y="586"/>
      <point x="271" y="482" type="curve"/>
      <point x="367" y="533"/>
      <point x="390" y="567"/>
      <point x="417" y="576" type="curve" smooth="yes"/>
      <point x="442" y="584"/>
      <point x="473" y="569"/>
      <point x="481" y="543" type="curve" smooth="yes"/>
      <point x="488" y="519"/>
      <point x="474" y="488"/>
      <point x="448" y="480" type="curve" smooth="yes"/>
      <point x="421" y="472"/>
      <point x="379" y="482"/>
      <point x="276" y="466" type="curve"/>
      <point x="354" y="389"/>
      <point x="394" y="378"/>
      <point x="411" y="355" type="curve" smooth="yes"/>
      <point x="426" y="334"/>
      <point x="421" y="300"/>
      <point x="399" y="284" type="curve" smooth="yes"/>
      <point x="379" y="269"/>
      <point x="344" y="273"/>
      <point x="329" y="297" type="curve" smooth="yes"/>
      <point x="315" y="320"/>
      <point x="310" y="362"/>
      <point x="262" y="456" type="curve"/>
      <point x="215" y="358"/>
      <point x="216" y="317"/>
      <point x="199" y="294" type="curve" smooth="yes"/>
      <point x="183" y="273"/>
      <point x="150" y="267"/>
    </contour>
  </outline>
</glyph>
<glyph name="comma" format="2">
  <advance width="285"/>
  <unicode hex="002C"/>
  <outline>
    <contour>
      <point x="55" y="-144" type="curve"/>
      <point x="47" y="-118" type="line"/>
      <point x="122" y="-99"/>
      <point x="177" y="-54"/>
      <point x="177" y="-12" type="curve" smooth="yes"/>
      <point x="177" y="23"/>
      <point x="71" y="-6"/>
      <point x="71" y="73" type="curve" smooth="yes"/>
      <point x="71" y="113"/>
      <point x="99" y="138"/>
      <point x="143" y="138" type="curve" smooth="yes"/>
      <point x="189" y="138"/>
      <point x="230" y="88"/>
      <point x="230" y="33" type="curve" smooth="yes"/>
      <point x="230" y="-42"/>
      <point x="160" y="-112"/>
    </contour>
  </outline>
</glyph>
<glyph name="hyphen" format="2">
  <advance width="454"/>
  <unicode hex="002D"/>
  <outline>
    <contour>
      <point x="92" y="246" type="line"/>
      <point x="92" y="323" type="line"/>
      <point x="362" y="323" type="line"/>
      <point x="362" y="246" type="line"/>
    </contour>
  </outline>
</glyph>
<glyph name="slash" format="2">
  <advance width="489"/>
  <unicode hex="002F"/>
  <outline>
    <contour>
      <point x="32" y="0" type="line"/>
      <point x="409" y="690" type="line"/>
      <point x="457" y="690" type="line"/>
      <point x="80" y="0" type="line"/>
    </contour>
  </outline>
</glyph>
<glyph name="zero" format="2">
  <advance width="578"/>
  <unicode hex="0030"/>
  <outline>
    <contour>
      <point x="289" y="-12" type="curve" smooth="yes"/>
      <point x="161" y="-12"/>
      <point x="56" y="148"/>
      <point x="56" y="345" type="curve" smooth="yes"/>
      <point x="56" y="541"/>
      <point x="162" y="702"/>
      <point x="291" y="702" type="curve" smooth="yes"/>
      <point x="418" y="702"/>
      <point x="522" y="541"/>
      <point x="522" y="345" type="curve" smooth="yes"/>
      <point x="522" y="150"/>
      <point x="416" y="-12"/>
    </contour>
    <contour>
      <point x="290" y="13" type="curve" smooth="yes"/>
      <point x="365" y="13"/>
      <point x="398" y="74"/>
      <point x="405" y="227" type="curve" smooth="yes"/>
      <point x="409" y="306"/>
      <point x="409" y="374"/>
      <point x="405" y="452" type="curve" smooth="yes"/>
      <point x="397" y="624"/>
      <point x="370" y="677"/>
      <point x="290" y="677" type="curve" smooth="yes"/>
      <point x="210" y="677"/>
      <point x="182" y="624"/>
      <point x="173" y="452" type="curve" smooth="yes"/>
      <point x="169" y="374"/>
      <point x="169" y="306"/>
      <point x="173" y="227" type="curve" smooth="yes"/>
      <point x="182" y="72"/>
      <point x="214" y="13"/>
    </contour>
  </outline>
</glyph>
<glyph name="one" format="2">
  <advance width="389"/>
  <unicode hex="0031"/>
  <outline>
    <contour>
      <point x="50" y="0" type="line"/>
      <point x="50" y="26" type="line"/>
      <point x="88" y="26" type="line" smooth="yes"/>
      <point x="148" y="26"/>
      <point x="160" y="33"/>
      <point x="160" y="71" type="curve" smooth="yes"/>
      <point x="160" y="605" type="line"/>
      <point x="160" y="605"/>
      <point x="98" y="624"/>
      <point x="39" y="650" type="curve"/>
      <point x="47" y="671" type="line"/>
      <point x="132" y="643"/>
      <point x="182" y="652"/>
      <point x="242" y="703" type="curve"/>
      <point x="261" y="697" type="line"/>
      <point x="261" y="72" type="line" smooth="yes"/>
      <point x="261" y="35"/>
      <point x="276" y="26"/>
      <point x="339" y="26" type="curve" smooth="yes"/>
      <point x="366" y="26" type="line"/>
      <point x="366" y="0" type="line"/>
    </contour>
  </outline>
</glyph>
<glyph name="two" format="2">
  <advance width="508"/>
  <unicode hex="0032"/>
  <outline>
    <contour>
      <point x="43" y="0" type="line"/>
      <point x="43" y="25" type="line"/>
      <point x="277" y="275"/>
      <point x="330" y="363"/>
      <point x="330" y="502" type="curve" smooth="yes"/>
      <point x="330" y="602"/>
      <point x="284" y="658"/>
      <point x="202" y="658" type="curve" smooth="yes"/>
      <point x="143" y="658"/>
      <point x="92" y="625"/>
      <point x="92" y="587" type="curve" smooth="yes"/>
      <point x="92" y="554"/>
      <point x="186" y="530"/>
      <point x="186" y="464" type="curve" smooth="yes"/>
      <point x="186" y="437"/>
      <point x="162" y="415"/>
      <point x="132" y="415" type="curve" smooth="yes"/>
      <point x="83" y="415"/>
      <point x="42" y="463"/>
      <point x="42" y="522" type="curve" smooth="yes"/>
      <point x="42" y="627"/>
      <point x="127" y="702"/>
      <point x="246" y="702" type="curve" smooth="yes"/>
      <point x="364" y="702"/>
      <point x="445" y="618"/>
      <point x="445" y="496" type="curve" smooth="yes"/>
      <point x="445" y="421"/>
      <point x="417" y="372"/>
      <point x="320" y="276" type="curve" smooth="yes"/>
      <point x="272" y="230"/>
      <point x="250" y="208"/>
      <point x="225" y="181" type="curve" smooth="yes"/>
      <point x="139" y="88" type="line"/>
      <point x="377" y="88" type="line" smooth="yes"/>
      <point x="410" y="88"/>
      <point x="425" y="110"/>
      <point x="461" y="209" type="curve"/>
      <point x="477" y="206" type="line"/>
      <point x="443" y="0" type="line"/>
    </contour>
  </outline>
</glyph>
<glyph name="five" format="2">
  <advance width="526"/>
  <unicode hex="0035"/>
  <outline>
    <contour>
      <point x="232" y="-13" type="curve" smooth="yes"/>
      <point x="100" y="-13"/>
      <point x="32" y="40"/>
      <point x="32" y="143" type="curve" smooth="yes"/>
      <point x="32" y="200"/>
      <point x="64" y="239"/>
      <point x="110" y="239" type="curve" smooth="yes"/>
      <point x="144" y="239"/>
      <point x="166" y="217"/>
      <point x="166" y="184" type="curve" smooth="yes"/>
      <point x="166" y="142"/>
      <point x="96" y="100"/>
      <point x="96" y="74" type="curve" smooth="yes"/>
      <point x="96" y="42"/>
      <point x="143" y="15"/>
      <point x="200" y="15" type="curve" smooth="yes"/>
      <point x="301" y="15"/>
      <point x="379" y="120"/>
      <point x="379" y="255" type="curve" smooth="yes"/>
      <point x="379" y="340"/>
      <point x="333" y="389"/>
      <point x="254" y="389" type="curve" smooth="yes"/>
      <point x="201" y="389"/>
      <point x="159" y="367"/>
      <point x="133" y="325" type="curve"/>
      <point x="111" y="333" type="line"/>
      <point x="189" y="698" type="line"/>
      <point x="209" y="701" type="line"/>
      <point x="360" y="626"/>
      <point x="408" y="624"/>
      <point x="465" y="693" type="curve"/>
      <point x="481" y="680" type="line"/>
      <point x="420" y="592"/>
      <point x="329" y="555"/>
      <point x="188" y="560" type="curve"/>
      <point x="152" y="391" type="line"/>
      <point x="198" y="407"/>
      <point x="245" y="416"/>
      <point x="289" y="416" type="curve" smooth="yes"/>
      <point x="412" y="416"/>
      <point x="491" y="344"/>
      <point x="491" y="233" type="curve" smooth="yes"/>
      <point x="491" y="95"/>
      <point x="377" y="-13"/>
    </contour>
  </outline>
</glyph>
<glyph name="six" format="2">
  <advance width="540"/>
  <unicode hex="0036"/>
  <outline>
    <contour>
      <point x="271" y="-12" type="curve" smooth="yes"/>
      <point x="133" y="-12"/>
      <point x="51" y="109"/>
      <point x="51" y="312" type="curve" smooth="yes"/>
      <point x="51" y="535"/>
      <point x="165" y="702"/>
      <point x="317" y="702" type="curve" smooth="yes"/>
      <point x="412" y="702"/>
      <point x="473" y="655"/>
      <point x="473" y="583" type="curve" smooth="yes"/>
      <point x="473" y="535"/>
      <point x="437" y="493"/>
      <point x="395" y="493" type="curve" smooth="yes"/>
      <point x="364" y="493"/>
      <point x="341" y="512"/>
      <point x="341" y="538" type="curve" smooth="yes"/>
      <point x="341" y="577"/>
      <point x="401" y="620"/>
      <point x="401" y="638" type="curve" smooth="yes"/>
      <point x="401" y="658"/>
      <point x="366" y="679"/>
      <point x="332" y="679" type="curve" smooth="yes"/>
      <point x="227" y="679"/>
      <point x="163" y="563"/>
      <point x="167" y="379" type="curve"/>
      <point x="189" y="415"/>
      <point x="251" y="445"/>
      <point x="303" y="445" type="curve" smooth="yes"/>
      <point x="428" y="445"/>
      <point x="493" y="372"/>
      <point x="493" y="231" type="curve" smooth="yes"/>
      <point x="493" y="101"/>
      <point x="390" y="-12"/>
    </contour>
    <contour>
      <point x="275" y="12" type="curve" smooth="yes"/>
      <point x="345" y="12"/>
      <point x="382" y="84"/>
      <point x="382" y="219" type="curve" smooth="yes"/>
      <point x="382" y="342"/>
      <point x="342" y="417"/>
      <point x="275" y="417" type="curve" smooth="yes"/>
      <point x="206" y="417"/>
      <point x="164" y="338"/>
      <point x="164" y="209" type="curve" smooth="yes"/>
      <point x="164" y="83"/>
      <point x="204" y="12"/>
    </contour>
  </outline>
</glyph>
<glyph name="eight" format="2">
  <advance width="562"/>
  <unicode hex="0038"/>
  <outline>
    <contour>
      <point x="237" y="333" type="line"/>
      <point x="166" y="295"/>
      <point x="129" y="238"/>
      <point x="129" y="166" type="curve" smooth="yes"/>
      <point x="129" y="82"/>
      <point x="194" y="14"/>
      <point x="275" y="14" type="curve" smooth="yes"/>
      <point x="361" y="14"/>
      <point x="413" y="65"/>
      <point x="413" y="150" type="curve" smooth="yes"/>
      <point x="413" y="222"/>
      <point x="371" y="261"/>
      <point x="241" y="311" type="curve" smooth="yes"/>
      <point x="128" y="355"/>
      <point x="84" y="407"/>
      <point x="84" y="499" type="curve" smooth="yes"/>
      <point x="84" y="616"/>
      <point x="168" y="696"/>
      <point x="291" y="696" type="curve" smooth="yes"/>
      <point x="400" y="696"/>
      <point x="477" y="631"/>
      <point x="477" y="538" type="curve" smooth="yes"/>
      <point x="477" y="477"/>
      <point x="441" y="429"/>
      <point x="352" y="371" type="curve"/>
      <point x="330" y="382" type="line"/>
      <point x="383" y="416"/>
      <point x="410" y="466"/>
      <point x="410" y="530" type="curve" smooth="yes"/>
      <point x="410" y="614"/>
      <point x="357" y="669"/>
      <point x="277" y="669" type="curve" smooth="yes"/>
      <point x="210" y="669"/>
      <point x="168" y="626"/>
      <point x="168" y="556" type="curve" smooth="yes"/>
      <point x="168" y="481"/>
      <point x="212" y="440"/>
      <point x="345" y="389" type="curve" smooth="yes"/>
      <point x="458" y="345"/>
      <point x="505" y="292"/>
      <point x="505" y="208" type="curve" smooth="yes"/>
      <point x="505" y="77"/>
      <point x="407" y="-13"/>
      <point x="265" y="-13" type="curve" smooth="yes"/>
      <point x="142" y="-13"/>
      <point x="58" y="56"/>
      <point x="58" y="157" type="curve" smooth="yes"/>
      <point x="58" y="225"/>
      <point x="118" y="295"/>
      <point x="219" y="346" type="curve"/>
    </contour>
  </outline>
</glyph>
<glyph name="nine" format="2">
  <advance width="540"/>
  <unicode hex="0039"/>
  <outline>
    <contour>
      <point x="223" y="-12" type="curve" smooth="yes"/>
      <point x="128" y="-12"/>
      <point x="67" y="35"/>
      <point x="67" y="107" type="curve" smooth="yes"/>
      <point x="67" y="155"/>
      <point x="103" y="197"/>
      <point x="145" y="197" type="curve" smooth="yes"/>
      <point x="177" y="197"/>
      <point x="199" y="178"/>
      <point x="199" y="152" type="curve" smooth="yes"/>
      <point x="199" y="113"/>
      <point x="139" y="70"/>
      <point x="139" y="52" type="curve" smooth="yes"/>
      <point x="139" y="32"/>
      <point x="174" y="11"/>
      <point x="208" y="11" type="curve" smooth="yes"/>
      <point x="313" y="11"/>
      <point x="377" y="127"/>
      <point x="373" y="311" type="curve"/>
      <point x="351" y="275"/>
      <point x="289" y="245"/>
      <point x="237" y="245" type="curve" smooth="yes"/>
      <point x="112" y="245"/>
      <point x="47" y="318"/>
      <point x="47" y="459" type="curve" smooth="yes"/>
      <point x="47" y="589"/>
      <point x="149" y="702"/>
      <point x="268" y="702" type="curve" smooth="yes"/>
      <point x="403" y="702"/>
      <point x="489" y="585"/>
      <point x="489" y="381" type="curve" smooth="yes"/>
      <point x="489" y="156"/>
      <point x="376" y="-12"/>
    </contour>
    <contour>
      <point x="265" y="273" type="curve" smooth="yes"/>
      <point x="334" y="273"/>
      <point x="376" y="352"/>
      <point x="376" y="481" type="curve" smooth="yes"/>
      <point x="376" y="607"/>
      <point x="336" y="678"/>
      <point x="265" y="678" type="curve" smooth="yes"/>
      <point x="195" y="678"/>
      <point x="158" y="606"/>
      <point x="158" y="471" type="curve" smooth="yes"/>
      <point x="158" y="348"/>
      <point x="198" y="273"/>
    </contour>
  </outline>
</glyph>
<glyph name="semicolon" format="2">
  <advance width="285"/>
  <unicode hex="003B"/>
  <outline>
    <contour>
      <point x="144" y="290" type="curve" smooth="yes"/>
      <point x="107" y="290"/>
      <point x="75" y="322"/>
      <point x="75" y="361" type="curve" smooth="yes"/>
      <point x="75" y="400"/>
      <point x="107" y="433"/>
      <point x="144" y="433" type="curve" smooth="yes"/>
      <point x="181" y="433"/>
      <point x="213" y="400"/>
      <point x="213" y="361" type="curve" smooth="yes"/>
      <point x="213" y="322"/>
      <point x="181" y="290"/>
    </contour>
    <contour>
      <point x="58" y="-139" type="curve"/>
      <point x="49" y="-112" type="line"/>
      <point x="121" y="-94"/>
      <point x="174" y="-51"/>
      <point x="174" y="-11" type="curve" smooth="yes"/>
      <point x="174" y="18"/>
      <point x="73" y="-7"/>
      <point x="73" y="69" type="curve" smooth="yes"/>
      <point x="73" y="107"/>
      <point x="100" y="131"/>
      <point x="142" y="131" type="curve" smooth="yes"/>
      <point x="187" y="131"/>
      <point x="226" y="84"/>
      <point x="226" y="30" type="curve" smooth="yes"/>
      <point x="226" y="-41"/>
      <point x="159" y="-109"/>
    </contour>
  </outline>
</glyph>
<glyph name="less" format="2">
  <advance width="554"/>
  <unicode hex="003C"/>
  <outline>
    <contour>
      <point x="442" y="116" type="line"/>
      <point x="95" y="294" type="line"/>
      <point x="95" y="346" type="line"/>
      <point x="442" y="524" type="line"/>
      <point x="442" y="474" type="line"/>
      <point x="140" y="320" type="line"/>
      <point x="442" y="165" type="line"/>
    </contour>
  </outline>
</glyph>
<glyph name="equal" format="2">
  <advance width="554"/>
  <unicode hex="003D"/>
  <outline>
    <contour>
      <point x="92" y="359" type="line"/>
      <point x="92" y="401" type="line"/>
      <point x="462" y="401" type="line"/>
      <point x="462" y="359" type="line"/>
    </contour>
    <contour>
      <point x="92" y="219" type="line"/>
      <point x="92" y="261" type="line"/>
      <point x="462" y="261" type="line"/>
      <point x="462" y="219" type="line"/>
    </contour>
  </outline>
</glyph>
<glyph name="greater" format="2">
  <advance width="554"/>
  <unicode hex="003E"/>
  <outline>
    <contour>
      <point x="112" y="116" type="line"/>
      <point x="112" y="166" type="line"/>
      <point x="414" y="320" type="line"/>
      <point x="112" y="475" type="line"/>
      <point x="112" y="524" type="line"/>
      <point x="459" y="346" type="line"/>
      <point x="459" y="294" type="line"/>
    </contour>
  </outline>
</glyph>
<glyph name="question" format="2">
  <advance width="405"/>
  <unicode hex="003F"/>
  <outline>
    <contour>
      <point x="133" y="170" type="line"/>
      <point x="133" y="375" type="line"/>
      <point x="241" y="362"/>
      <point x="328" y="437"/>
      <point x="328" y="544" type="curve" smooth="yes"/>
      <point x="328" y="625"/>
      <point x="269" y="677"/>
      <point x="178" y="677" type="curve" smooth="yes"/>
      <point x="150" y="677"/>
      <point x="126" y="664"/>
      <point x="126" y="649" type="curve" smooth="yes"/>
      <point x="126" y="640"/>
      <point x="175" y="600"/>
      <point x="175" y="569" type="curve" smooth="yes"/>
      <point x="175" y="541"/>
      <point x="147" y="517"/>
      <point x="115" y="517" type="curve" smooth="yes"/>
      <point x="77" y="517"/>
      <point x="48" y="552"/>
      <point x="48" y="597" type="curve" smooth="yes"/>
      <point x="48" y="659"/>
      <point x="105" y="702"/>
      <point x="188" y="702" type="curve" smooth="yes"/>
      <point x="309" y="702"/>
      <point x="391" y="618"/>
      <point x="391" y="495" type="curve" smooth="yes"/>
      <point x="391" y="374"/>
      <point x="301" y="277"/>
      <point x="161" y="249" type="curve"/>
      <point x="161" y="170" type="line"/>
    </contour>
    <contour>
      <point x="142" y="-12" type="curve" smooth="yes"/>
      <point x="105" y="-12"/>
      <point x="72" y="21"/>
      <point x="72" y="60" type="curve" smooth="yes"/>
      <point x="72" y="99"/>
      <point x="105" y="132"/>
      <point x="142" y="132" type="curve" smooth="yes"/>
      <point x="179" y="132"/>
      <point x="212" y="99"/>
      <point x="212" y="60" type="curve" smooth="yes"/>
      <point x="212" y="21"/>
      <point x="179" y="-12"/>
    </contour>
  </outline>
</glyph>
<glyph name="at" format="2">
  <advance width="903"/>
  <unicode hex="0040"/>
  <outline>
    <contour>
      <point x="472" y="-143" type="curve" smooth="yes"/>
      <point x="216" y="-143"/>
      <point x="46" y="19"/>
      <point x="46" y="263" type="curve" smooth="yes"/>
      <point x="46" y="501"/>
      <point x="243" y="702"/>
      <point x="476" y="702" type="curve" smooth="yes"/>
      <point x="704" y="702"/>
      <point x="876" y="546"/>
      <point x="876" y="338" type="curve" smooth="yes"/>
      <point x="876" y="163"/>
      <point x="791" y="53"/>
      <point x="656" y="53" type="curve" smooth="yes"/>
      <point x="583" y="53"/>
      <point x="543" y="93"/>
      <point x="549" y="161" type="curve"/>
      <point x="545" y="161" type="line"/>
      <point x="509" y="90"/>
      <point x="463" y="55"/>
      <point x="406" y="55" type="curve" smooth="yes"/>
      <point x="328" y="55"/>
      <point x="273" y="124"/>
      <point x="273" y="220" type="curve" smooth="yes"/>
      <point x="273" y="351"/>
      <point x="396" y="494"/>
      <point x="509" y="494" type="curve" smooth="yes"/>
      <point x="549" y="494"/>
      <point x="584" y="475"/>
      <point x="610" y="439" type="curve"/>
      <point x="627" y="484" type="line"/>
      <point x="698" y="484" type="line"/>
      <point x="636" y="196" type="line" smooth="yes"/>
      <point x="620" y="119"/>
      <point x="630" y="89"/>
      <point x="673" y="89" type="curve" smooth="yes"/>
      <point x="776" y="89"/>
      <point x="845" y="188"/>
      <point x="845" y="336" type="curve" smooth="yes"/>
      <point x="845" y="525"/>
      <point x="696" y="667"/>
      <point x="498" y="667" type="curve" smooth="yes"/>
      <point x="287" y="667"/>
      <point x="145" y="517"/>
      <point x="145" y="292" type="curve" smooth="yes"/>
      <point x="145" y="41"/>
      <point x="276" y="-94"/>
      <point x="518" y="-94" type="curve" smooth="yes"/>
      <point x="609" y="-94"/>
      <point x="696" y="-64"/>
      <point x="770" y="-7" type="curve"/>
      <point x="782" y="-24" type="line"/>
      <point x="704" y="-99"/>
      <point x="589" y="-143"/>
    </contour>
    <contour>
      <point x="420" y="89" type="curve" smooth="yes"/>
      <point x="504" y="89"/>
      <point x="587" y="232"/>
      <point x="587" y="377" type="curve" smooth="yes"/>
      <point x="587" y="438"/>
      <point x="567" y="464"/>
      <point x="522" y="464" type="curve" smooth="yes"/>
      <point x="444" y="464"/>
      <point x="359" y="306"/>
      <point x="359" y="161" type="curve" smooth="yes"/>
      <point x="359" y="114"/>
      <point x="380" y="89"/>
    </contour>
  </outline>
</glyph>
<glyph name="A" format="2">
  <advance width="720"/>
  <unicode hex="0041"/>
  <outline>
    <contour>
      <point x="9" y="0" type="line"/>
      <point x="9" y="26" type="line"/>
      <point x="85" y="30"/>
      <point x="92" y="35"/>
      <point x="120" y="111" type="curve" smooth="yes"/>
      <point x="349" y="705" type="line"/>
      <point x="368" y="705" type="line"/>
      <point x="597" y="92" type="line" smooth="yes"/>
      <point x="617" y="40"/>
      <point x="627" y="33"/>
      <point x="686" y="28" type="curve" smooth="yes"/>
      <point x="711" y="26" type="line"/>
      <point x="711" y="0" type="line"/>
      <point x="359" y="0" type="line"/>
      <point x="359" y="26" type="line"/>
      <point x="383" y="26" type="line" smooth="yes"/>
      <point x="489" y="26"/>
      <point x="499" y="34"/>
      <point x="476" y="98" type="curve" smooth="yes"/>
      <point x="316" y="542" type="line"/>
      <point x="155" y="120" type="line" smooth="yes"/>
      <point x="126" y="43"/>
      <point x="133" y="35"/>
      <point x="237" y="28" type="curve" smooth="yes"/>
      <point x="267" y="26" type="line"/>
      <point x="267" y="0" type="line"/>
    </contour>
    <contour>
      <point x="314" y="304" type="line"/>
      <point x="314" y="276" type="line"/>
      <point x="199" y="276" type="line"/>
      <point x="211" y="304" type="line"/>
    </contour>
    <contour>
      <point x="445" y="304" type="line"/>
      <point x="455" y="276" type="line"/>
      <point x="314" y="276" type="line"/>
      <point x="314" y="304" type="line"/>
    </contour>
  </outline>
</glyph>
<glyph name="B" format="2">
  <advance width="661"/>
  <unicode hex="0042"/>
  <outline>
    <contour>
      <point x="29" y="0" type="line"/>
      <point x="29" y="26" type="line"/>
      <point x="42" y="26" type="line" smooth="yes"/>
      <point x="122" y="26"/>
      <point x="134" y="33"/>
      <point x="134" y="81" type="curve" smooth="yes"/>
      <point x="134" y="618" type="line" smooth="yes"/>
      <point x="134" y="655"/>
      <point x="117" y="663"/>
      <point x="42" y="663" type="curve" smooth="yes"/>
      <point x="29" y="663" type="line"/>
      <point x="29" y="689" type="line"/>
      <point x="374" y="689" type="line" smooth="yes"/>
      <point x="504" y="689"/>
      <point x="586" y="621"/>
      <point x="586" y="513" type="curve" smooth="yes"/>
      <point x="586" y="438"/>
      <point x="518" y="374"/>
      <point x="424" y="359" type="curve"/>
      <point x="559" y="321"/>
      <point x="613" y="270"/>
      <point x="613" y="181" type="curve" smooth="yes"/>
      <point x="613" y="82"/>
      <point x="517" y="0"/>
      <point x="401" y="0" type="curve" smooth="yes"/>
    </contour>
    <contour>
      <point x="209" y="367" type="line"/>
      <point x="308" y="367" type="line" smooth="yes"/>
      <point x="421" y="367"/>
      <point x="470" y="413"/>
      <point x="470" y="518" type="curve" smooth="yes"/>
      <point x="470" y="610"/>
      <point x="426" y="664"/>
      <point x="351" y="664" type="curve" smooth="yes"/>
      <point x="299" y="664" type="line" smooth="yes"/>
      <point x="259" y="664"/>
      <point x="245" y="656"/>
      <point x="245" y="632" type="curve" smooth="yes"/>
      <point x="245" y="72" type="line" smooth="yes"/>
      <point x="245" y="36"/>
      <point x="266" y="26"/>
      <point x="338" y="26" type="curve" smooth="yes"/>
      <point x="443" y="26"/>
      <point x="487" y="71"/>
      <point x="487" y="176" type="curve" smooth="yes"/>
      <point x="487" y="247"/>
      <point x="470" y="296"/>
      <point x="439" y="319" type="curve" smooth="yes"/>
      <point x="414" y="338"/>
      <point x="387" y="343"/>
      <point x="310" y="343" type="curve" smooth="yes"/>
      <point x="209" y="343" type="line"/>
    </contour>
  </outline>
</glyph>
<glyph name="C" format="2">
  <advance width="671"/>
  <unicode hex="0043"/>
  <outline>
    <contour>
      <point x="379" y="-12" type="curve" smooth="yes"/>
      <point x="192" y="-12"/>
      <point x="36" y="151"/>
      <point x="36" y="345" type="curve" smooth="yes"/>
      <point x="36" y="532"/>
      <point x="194" y="702"/>
      <point x="367" y="702" type="curve" smooth="yes"/>
      <point x="481" y="702"/>
      <point x="529" y="646"/>
      <point x="554" y="646" type="curve" smooth="yes"/>
      <point x="571" y="646"/>
      <point x="587" y="661"/>
      <point x="607" y="693" type="curve"/>
      <point x="623" y="693" type="line"/>
      <point x="623" y="455" type="line"/>
      <point x="604" y="455" type="line"/>
      <point x="564" y="600"/>
      <point x="483" y="677"/>
      <point x="371" y="677" type="curve" smooth="yes"/>
      <point x="246" y="677"/>
      <point x="169" y="550"/>
      <point x="169" y="346" type="curve" smooth="yes"/>
      <point x="169" y="136"/>
      <point x="249" y="21"/>
      <point x="395" y="21" type="curve" smooth="yes"/>
      <point x="513" y="21"/>
      <point x="576" y="74"/>
      <point x="611" y="202" type="curve"/>
      <point x="635" y="195" type="line"/>
      <point x="595" y="52"/>
      <point x="516" y="-12"/>
    </contour>
  </outline>
</glyph>
<glyph name="D" format="2">
  <advance width="768"/>
  <unicode hex="0044"/>
  <outline>
    <contour>
      <point x="29" y="0" type="line"/>
      <point x="29" y="26" type="line"/>
      <point x="43" y="26" type="line" smooth="yes"/>
      <point x="124" y="26"/>
      <point x="134" y="32"/>
      <point x="134" y="80" type="curve" smooth="yes"/>
      <point x="134" y="609" type="line" smooth="yes"/>
      <point x="134" y="655"/>
      <point x="122" y="663"/>
      <point x="47" y="663" type="curve" smooth="yes"/>
      <point x="29" y="663" type="line"/>
      <point x="29" y="689" type="line"/>
      <point x="389" y="689" type="line" smooth="yes"/>
      <point x="575" y="689"/>
      <point x="735" y="532"/>
      <point x="735" y="349" type="curve" smooth="yes"/>
      <point x="735" y="163"/>
      <point x="574" y="0"/>
      <point x="390" y="0" type="curve" smooth="yes"/>
    </contour>
    <contour>
      <point x="313" y="25" type="curve" smooth="yes"/>
      <point x="400" y="25" type="line" smooth="yes"/>
      <point x="514" y="25"/>
      <point x="610" y="172"/>
      <point x="610" y="347" type="curve" smooth="yes"/>
      <point x="610" y="536"/>
      <point x="518" y="664"/>
      <point x="382" y="664" type="curve" smooth="yes"/>
      <point x="281" y="664" type="line" smooth="yes"/>
      <point x="256" y="664"/>
      <point x="245" y="655"/>
      <point x="245" y="633" type="curve" smooth="yes"/>
      <point x="245" y="71" type="line" smooth="yes"/>
      <point x="245" y="37"/>
      <point x="263" y="25"/>
    </contour>
  </outline>
</glyph>
<glyph name="F" format="2">
  <advance width="660"/>
  <unicode hex="0046"/>
  <outline>
    <contour>
      <point x="215" y="354" type="line"/>
      <point x="334" y="357" type="line" smooth="yes"/>
      <point x="408" y="359"/>
      <point x="422" y="395"/>
      <point x="444" y="502" type="curve"/>
      <point x="462" y="502" type="line"/>
      <point x="462" y="184" type="line"/>
      <point x="444" y="184" type="line"/>
      <point x="425" y="311"/>
      <point x="410" y="329"/>
      <point x="333" y="331" type="curve" smooth="yes"/>
      <point x="215" y="333" type="line"/>
    </contour>
    <contour>
      <point x="245" y="72" type="line" smooth="yes"/>
      <point x="245" y="35"/>
      <point x="269" y="26"/>
      <point x="345" y="26" type="curve" smooth="yes"/>
      <point x="369" y="26" type="line"/>
      <point x="369" y="0" type="line"/>
      <point x="29" y="0" type="line"/>
      <point x="29" y="26" type="line"/>
      <point x="42" y="26" type="line" smooth="yes"/>
      <point x="125" y="26"/>
      <point x="134" y="35"/>
      <point x="134" y="81" type="curve" smooth="yes"/>
      <point x="134" y="618" type="line" smooth="yes"/>
      <point x="134" y="654"/>
      <point x="119" y="663"/>
      <point x="42" y="663" type="curve" smooth="yes"/>
      <point x="29" y="663" type="line"/>
      <point x="29" y="689" type="line"/>
      <point x="595" y="689" type="line"/>
      <point x="631" y="456" type="line"/>
      <point x="615" y="452" type="line"/>
      <point x="537" y="624"/>
      <point x="475" y="663"/>
      <point x="404" y="663" type="curve" smooth="yes"/>
      <point x="301" y="663" type="line" smooth="yes"/>
      <point x="251" y="663"/>
      <point x="245" y="654"/>
      <point x="245" y="627" type="curve" smooth="yes"/>
    </contour>
  </outline>
</glyph>
<glyph name="G" format="2">
  <advance width="711"/>
  <unicode hex="0047"/>
  <outline>
    <contour>
      <point x="361" y="-12" type="curve" smooth="yes"/>
      <point x="185" y="-12"/>
      <point x="36" y="152"/>
      <point x="36" y="346" type="curve" smooth="yes"/>
      <point x="36" y="544"/>
      <point x="184" y="702"/>
      <point x="368" y="702" type="curve" smooth="yes"/>
      <point x="459" y="702"/>
      <point x="517" y="654"/>
      <point x="542" y="654" type="curve" smooth="yes"/>
      <point x="558" y="654"/>
      <point x="575" y="667"/>
      <point x="594" y="693" type="curve"/>
      <point x="609" y="693" type="line"/>
      <point x="609" y="455" type="line"/>
      <point x="592" y="455" type="line"/>
      <point x="554" y="595"/>
      <point x="472" y="677"/>
      <point x="369" y="677" type="curve" smooth="yes"/>
      <point x="242" y="677"/>
      <point x="169" y="565"/>
      <point x="169" y="372" type="curve" smooth="yes"/>
      <point x="169" y="124"/>
      <point x="233" y="12"/>
      <point x="374" y="12" type="curve" smooth="yes"/>
      <point x="438" y="12"/>
      <point x="508" y="61"/>
      <point x="508" y="106" type="curve" smooth="yes"/>
      <point x="508" y="243" type="line" smooth="yes"/>
      <point x="508" y="279"/>
      <point x="490" y="288"/>
      <point x="416" y="288" type="curve" smooth="yes"/>
      <point x="393" y="288" type="line"/>
      <point x="393" y="314" type="line"/>
      <point x="719" y="314" type="line"/>
      <point x="719" y="288" type="line"/>
      <point x="702" y="288" type="line" smooth="yes"/>
      <point x="642" y="288"/>
      <point x="617" y="274"/>
      <point x="617" y="242" type="curve" smooth="yes"/>
      <point x="617" y="0" type="line"/>
      <point x="602" y="0" type="line"/>
      <point x="589" y="29"/>
      <point x="565" y="52"/>
      <point x="548" y="52" type="curve" smooth="yes"/>
      <point x="518" y="52"/>
      <point x="488" y="-12"/>
    </contour>
  </outline>
</glyph>
<glyph name="I" format="2">
  <advance width="396"/>
  <unicode hex="0049"/>
  <outline>
    <contour>
      <point x="29" y="0" type="line"/>
      <point x="29" y="26" type="line"/>
      <point x="52" y="26" type="line" smooth="yes"/>
      <point x="130" y="26"/>
      <point x="144" y="33"/>
      <point x="144" y="71" type="curve" smooth="yes"/>
      <point x="144" y="618" type="line" smooth="yes"/>
      <point x="144" y="655"/>
      <point x="127" y="663"/>
      <point x="52" y="663" type="curve" smooth="yes"/>
      <point x="29" y="663" type="line"/>
      <point x="29" y="689" type="line"/>
      <point x="370" y="689" type="line"/>
      <point x="370" y="663" type="line"/>
      <point x="343" y="663" type="line" smooth="yes"/>
      <point x="270" y="663"/>
      <point x="255" y="655"/>
      <point x="255" y="617" type="curve" smooth="yes"/>
      <point x="255" y="72" type="line" smooth="yes"/>
      <point x="255" y="34"/>
      <point x="271" y="26"/>
      <point x="343" y="26" type="curve" smooth="yes"/>
      <point x="370" y="26" type="line"/>
      <point x="370" y="0" type="line"/>
    </contour>
  </outline>
</glyph>
<glyph name="K" format="2">
  <advance width="776"/>
  <unicode hex="004B"/>
  <outline>
    <contour>
      <point x="245" y="72" type="curve" smooth="yes"/>
      <point x="245" y="617" type="line" smooth="yes"/>
      <point x="245" y="655"/>
      <point x="261" y="663"/>
      <point x="338" y="663" type="curve" smooth="yes"/>
      <point x="352" y="663" type="line"/>
      <point x="352" y="689" type="line"/>
      <point x="29" y="689" type="line"/>
      <point x="29" y="663" type="line"/>
      <point x="42" y="663" type="line" smooth="yes"/>
      <point x="117" y="663"/>
      <point x="134" y="655"/>
      <point x="134" y="618" type="curve" smooth="yes"/>
      <point x="134" y="71" type="line" smooth="yes"/>
      <point x="134" y="33"/>
      <point x="120" y="26"/>
      <point x="42" y="26" type="curve" smooth="yes"/>
      <point x="29" y="26" type="line"/>
      <point x="29" y="0" type="line"/>
      <point x="347" y="0" type="line"/>
      <point x="347" y="26" type="line"/>
      <point x="338" y="26" type="line" smooth="yes"/>
      <point x="262" y="26"/>
      <point x="245" y="34"/>
    </contour>
    <contour>
      <point x="211" y="265" type="line"/>
      <point x="344" y="391" type="line"/>
      <point x="489" y="529" type="line" smooth="yes"/>
      <point x="620" y="654"/>
      <point x="625" y="656"/>
      <point x="737" y="663" type="curve"/>
      <point x="737" y="689" type="line"/>
      <point x="456" y="689" type="line"/>
      <point x="456" y="663" type="line"/>
      <point x="470" y="662" type="line" smooth="yes"/>
      <point x="573" y="655"/>
      <point x="573" y="646"/>
      <point x="467" y="546" type="curve" smooth="yes"/>
      <point x="211" y="303" type="line"/>
    </contour>
    <contour>
      <point x="384" y="446" type="line"/>
      <point x="306" y="369" type="line"/>
      <point x="501" y="99" type="line" smooth="yes"/>
      <point x="544" y="39"/>
      <point x="540" y="32"/>
      <point x="455" y="27" type="curve" smooth="yes"/>
      <point x="439" y="26" type="line"/>
      <point x="439" y="0" type="line"/>
      <point x="767" y="0" type="line"/>
      <point x="767" y="26" type="line"/>
      <point x="684" y="36"/>
      <point x="679" y="38"/>
      <point x="641" y="91" type="curve" smooth="yes"/>
    </contour>
  </outline>
</glyph>
<glyph name="L" format="2">
  <advance width="651"/>
  <unicode hex="004C"/>
  <outline>
    <contour>
      <point x="29" y="0" type="line"/>
      <point x="29" y="26" type="line"/>
      <point x="42" y="26" type="line" smooth="yes"/>
      <point x="122" y="26"/>
      <point x="134" y="33"/>
      <point x="134" y="81" type="curve" smooth="yes"/>
      <point x="134" y="618" type="line" smooth="yes"/>
      <point x="134" y="655"/>
      <point x="117" y="663"/>
      <point x="42" y="663" type="curve" smooth="yes"/>
      <point x="29" y="663" type="line"/>
      <point x="29" y="689" type="line"/>
      <point x="355" y="689" type="line"/>
      <point x="355" y="663" type="line"/>
      <point x="326" y="663" type="line" smooth="yes"/>
      <point x="261" y="663"/>
      <point x="245" y="656"/>
      <point x="245" y="627" type="curve" smooth="yes"/>
      <point x="245" y="82" type="line" smooth="yes"/>
      <point x="245" y="37"/>
      <point x="270" y="23"/>
      <point x="345" y="26" type="curve" smooth="yes"/>
      <point x="421" y="29" type="line" smooth="yes"/>
      <point x="463" y="31"/>
      <point x="566" y="147"/>
      <point x="609" y="240" type="curve"/>
      <point x="626" y="238" type="line"/>
      <point x="586" y="0" type="line"/>
    </contour>
  </outline>
</glyph>
<glyph name="N" format="2">
  <advance width="749"/>
  <unicode hex="004E"/>
  <outline>
    <contour>
      <point x="129" y="617" type="line"/>
      <point x="99" y="655"/>
      <point x="80" y="663"/>
      <point x="19" y="663" type="curve"/>
      <point x="19" y="689" type="line"/>
      <point x="211" y="689" type="line"/>
      <point x="599" y="176" type="line"/>
      <point x="599" y="571" type="line" smooth="yes"/>
      <point x="599" y="648"/>
      <point x="589" y="656"/>
      <point x="485" y="662" type="curve" smooth="yes"/>
      <point x="468" y="663" type="line"/>
      <point x="468" y="689" type="line"/>
      <point x="730" y="689" type="line"/>
      <point x="730" y="663" type="line"/>
      <point x="640" y="659"/>
      <point x="629" y="648"/>
      <point x="629" y="565" type="curve" smooth="yes"/>
      <point x="629" y="-18" type="line"/>
      <point x="607" y="-18" type="line"/>
      <point x="159" y="578" type="line"/>
      <point x="159" y="118" type="line" smooth="yes"/>
      <point x="159" y="41"/>
      <point x="168" y="34"/>
      <point x="282" y="26" type="curve"/>
      <point x="282" y="0" type="line"/>
      <point x="25" y="0" type="line"/>
      <point x="25" y="26" type="line"/>
      <point x="43" y="27" type="line" smooth="yes"/>
      <point x="118" y="31"/>
      <point x="129" y="43"/>
      <point x="129" y="124" type="curve" smooth="yes"/>
    </contour>
  </outline>
</glyph>
<glyph name="O" format="2">
  <advance width="734"/>
  <unicode hex="004F"/>
  <outline>
    <contour>
      <point x="367" y="-12" type="curve" smooth="yes"/>
      <point x="187" y="-12"/>
      <point x="36" y="151"/>
      <point x="36" y="345" type="curve" smooth="yes"/>
      <point x="36" y="539"/>
      <point x="187" y="702"/>
      <point x="367" y="702" type="curve" smooth="yes"/>
      <point x="547" y="702"/>
      <point x="698" y="539"/>
      <point x="698" y="345" type="curve" smooth="yes"/>
      <point x="698" y="151"/>
      <point x="547" y="-12"/>
    </contour>
    <contour>
      <point x="367" y="12" type="curve" smooth="yes"/>
      <point x="481" y="12"/>
      <point x="553" y="91"/>
      <point x="563" y="227" type="curve" smooth="yes"/>
      <point x="569" y="307"/>
      <point x="569" y="374"/>
      <point x="563" y="452" type="curve" smooth="yes"/>
      <point x="552" y="606"/>
      <point x="490" y="677"/>
      <point x="367" y="677" type="curve" smooth="yes"/>
      <point x="245" y="677"/>
      <point x="182" y="605"/>
      <point x="171" y="452" type="curve" smooth="yes"/>
      <point x="165" y="374"/>
      <point x="165" y="307"/>
      <point x="171" y="227" type="curve" smooth="yes"/>
      <point x="181" y="91"/>
      <point x="253" y="12"/>
    </contour>
  </outline>
</glyph>
<glyph name="P" format="2">
  <advance width="670"/>
  <unicode hex="0050"/>
  <outline>
    <contour>
      <point x="219" y="327" type="line"/>
      <point x="333" y="327" type="line" smooth="yes"/>
      <point x="451" y="327"/>
      <point x="503" y="378"/>
      <point x="503" y="494" type="curve" smooth="yes"/>
      <point x="503" y="600"/>
      <point x="450" y="664"/>
      <point x="362" y="664" type="curve" smooth="yes"/>
      <point x="299" y="664" type="line" smooth="yes"/>
      <point x="259" y="664"/>
      <point x="245" y="656"/>
      <point x="245" y="632" type="curve" smooth="yes"/>
      <point x="245" y="72" type="line" smooth="yes"/>
      <point x="245" y="36"/>
      <point x="267" y="26"/>
      <point x="345" y="26" type="curve" smooth="yes"/>
      <point x="369" y="26" type="line"/>
      <point x="369" y="0" type="line"/>
      <point x="29" y="0" type="line"/>
      <point x="29" y="26" type="line"/>
      <point x="42" y="26" type="line" smooth="yes"/>
      <point x="121" y="26"/>
      <point x="134" y="34"/>
      <point x="134" y="81" type="curve" smooth="yes"/>
      <point x="134" y="618" type="line" smooth="yes"/>
      <point x="134" y="654"/>
      <point x="116" y="663"/>
      <point x="42" y="663" type="curve" smooth="yes"/>
      <point x="29" y="663" type="line"/>
      <point x="29" y="689" type="line"/>
      <point x="387" y="689" type="line" smooth="yes"/>
      <point x="523" y="689"/>
      <point x="624" y="603"/>
      <point x="624" y="489" type="curve" smooth="yes"/>
      <point x="624" y="379"/>
      <point x="510" y="302"/>
      <point x="348" y="302" type="curve" smooth="yes"/>
      <point x="219" y="302" type="line"/>
    </contour>
  </outline>
</glyph>
<glyph name="Q" format="2">
  <advance width="734"/>
  <unicode hex="0051"/>
  <outline>
    <contour>
      <point x="367" y="677" type="curve" smooth="yes"/>
      <point x="246" y="677"/>
      <point x="180" y="602"/>
      <point x="171" y="452" type="curve" smooth="yes"/>
      <point x="166" y="366"/>
      <point x="166" y="300"/>
      <point x="171" y="227" type="curve" smooth="yes"/>
      <point x="176" y="163"/>
      <point x="197" y="107"/>
      <point x="234" y="60" type="curve"/>
      <point x="207" y="144"/>
      <point x="267" y="221"/>
      <point x="360" y="221" type="curve" smooth="yes"/>
      <point x="438" y="221"/>
      <point x="500" y="159"/>
      <point x="528" y="53" type="curve"/>
      <point x="530" y="49" type="line"/>
      <point x="556" y="-40"/>
      <point x="586" y="-78"/>
      <point x="630" y="-78" type="curve" smooth="yes"/>
      <point x="662" y="-78"/>
      <point x="679" y="-50"/>
      <point x="679" y="0" type="curve"/>
      <point x="699" y="0" type="line"/>
      <point x="696" y="-97"/>
      <point x="645" y="-150"/>
      <point x="555" y="-150" type="curve" smooth="yes"/>
      <point x="472" y="-150"/>
      <point x="432" y="-100"/>
      <point x="428" y="11" type="curve" smooth="yes"/>
      <point x="423" y="131"/>
      <point x="393" y="178"/>
      <point x="321" y="178" type="curve" smooth="yes"/>
      <point x="283" y="178"/>
      <point x="251" y="144"/>
      <point x="251" y="103" type="curve" smooth="yes"/>
      <point x="251" y="44"/>
      <point x="292" y="12"/>
      <point x="367" y="12" type="curve" smooth="yes"/>
      <point x="407" y="12"/>
      <point x="444" y="22"/>
      <point x="474" y="42" type="curve"/>
      <point x="500" y="44" type="line"/>
      <point x="540" y="85"/>
      <point x="557" y="134"/>
      <point x="563" y="227" type="curve" smooth="yes"/>
      <point x="569" y="307"/>
      <point x="569" y="374"/>
      <point x="563" y="452" type="curve" smooth="yes"/>
      <point x="551" y="607"/>
      <point x="490" y="677"/>
    </contour>
    <contour>
      <point x="367" y="-12" type="curve" smooth="yes"/>
      <point x="187" y="-12"/>
      <point x="36" y="151"/>
      <point x="36" y="345" type="curve" smooth="yes"/>
      <point x="36" y="539"/>
      <point x="187" y="702"/>
      <point x="367" y="702" type="curve" smooth="yes"/>
      <point x="547" y="702"/>
      <point x="698" y="539"/>
      <point x="698" y="345" type="curve" smooth="yes"/>
      <point x="698" y="151"/>
      <point x="547" y="-12"/>
    </contour>
  </outline>
</glyph>
<glyph name="R" format="2">
  <advance width="715"/>
  <unicode hex="0052"/>
  <outline>
    <contour>
      <point x="225" y="355" type="line"/>
      <point x="315" y="355" type="line" smooth="yes"/>
      <point x="418" y="355"/>
      <point x="498" y="385"/>
      <point x="498" y="509" type="curve" smooth="yes"/>
      <point x="498" y="621"/>
      <point x="407" y="664"/>
      <point x="323" y="664" type="curve" smooth="yes"/>
      <point x="299" y="664" type="line" smooth="yes"/>
      <point x="253" y="664"/>
      <point x="245" y="652"/>
      <point x="245" y="632" type="curve" smooth="yes"/>
      <point x="245" y="72" type="line" smooth="yes"/>
      <point x="245" y="35"/>
      <point x="269" y="26"/>
      <point x="320" y="26" type="curve" smooth="yes"/>
      <point x="344" y="26" type="line"/>
      <point x="344" y="0" type="line"/>
      <point x="29" y="0" type="line"/>
      <point x="29" y="26" type="line"/>
      <point x="42" y="26" type="line" smooth="yes"/>
      <point x="125" y="26"/>
      <point x="134" y="35"/>
      <point x="134" y="81" type="curve" smooth="yes"/>
      <point x="134" y="618" type="line" smooth="yes"/>
      <point x="134" y="654"/>
      <point x="119" y="663"/>
      <point x="42" y="663" type="curve" smooth="yes"/>
      <point x="29" y="663" type="line"/>
      <point x="29" y="689" type="line"/>
      <point x="372" y="689" type="line" smooth="yes"/>
      <point x="480" y="689"/>
      <point x="619" y="629"/>
      <point x="619" y="506" type="curve" smooth="yes"/>
      <point x="619" y="425"/>
      <point x="542" y="364"/>
      <point x="419" y="345" type="curve"/>
      <point x="514" y="319"/>
      <point x="557" y="273"/>
      <point x="568" y="168" type="curve" smooth="yes"/>
      <point x="579" y="60"/>
      <point x="595" y="35"/>
      <point x="642" y="35" type="curve" smooth="yes"/>
      <point x="694" y="35"/>
      <point x="706" y="96"/>
      <point x="709" y="149" type="curve"/>
      <point x="729" y="149" type="line"/>
      <point x="725" y="16"/>
      <point x="653" y="-14"/>
      <point x="588" y="-14" type="curve" smooth="yes"/>
      <point x="514" y="-14"/>
      <point x="458" y="21"/>
      <point x="454" y="82" type="curve" smooth="yes"/>
      <point x="444" y="253" type="line" smooth="yes"/>
      <point x="440" y="323"/>
      <point x="405" y="332"/>
      <point x="348" y="332" type="curve" smooth="yes"/>
      <point x="225" y="332" type="line"/>
    </contour>
  </outline>
</glyph>
<glyph name="U" format="2">
  <advance width="741"/>
  <unicode hex="0055"/>
  <outline>
    <contour>
      <point x="399" y="-11" type="curve" smooth="yes"/>
      <point x="228" y="-11"/>
      <point x="124" y="70"/>
      <point x="124" y="204" type="curve" smooth="yes"/>
      <point x="123" y="615" type="line" smooth="yes"/>
      <point x="123" y="653"/>
      <point x="106" y="663"/>
      <point x="38" y="663" type="curve" smooth="yes"/>
      <point x="25" y="663" type="line"/>
      <point x="25" y="689" type="line"/>
      <point x="360" y="689" type="line"/>
      <point x="360" y="663" type="line"/>
      <point x="309" y="662" type="line" smooth="yes"/>
      <point x="252" y="661"/>
      <point x="235" y="650"/>
      <point x="235" y="612" type="curve" smooth="yes"/>
      <point x="235" y="184" type="line" smooth="yes"/>
      <point x="235" y="86"/>
      <point x="293" y="33"/>
      <point x="398" y="33" type="curve" smooth="yes"/>
      <point x="546" y="33"/>
      <point x="600" y="91"/>
      <point x="600" y="252" type="curve" smooth="yes"/>
      <point x="600" y="578" type="line" smooth="yes"/>
      <point x="600" y="646"/>
      <point x="576" y="663"/>
      <point x="484" y="663" type="curve" smooth="yes"/>
      <point x="470" y="663" type="line"/>
      <point x="470" y="689" type="line"/>
      <point x="716" y="689" type="line"/>
      <point x="716" y="662" type="line"/>
      <point x="635" y="657"/>
      <point x="630" y="651"/>
      <point x="630" y="565" type="curve" smooth="yes"/>
      <point x="630" y="240" type="line" smooth="yes"/>
      <point x="630" y="74"/>
      <point x="551" y="-11"/>
    </contour>
  </outline>
</glyph>
<glyph name="V" format="2">
  <advance width="720"/>
  <unicode hex="0056"/>
  <outline>
    <contour>
      <point x="352" y="-16" type="line"/>
      <point x="123" y="597" type="line" smooth="yes"/>
      <point x="104" y="647"/>
      <point x="97" y="656"/>
      <point x="34" y="661" type="curve" smooth="yes"/>
      <point x="9" y="663" type="line"/>
      <point x="9" y="689" type="line"/>
      <point x="361" y="689" type="line"/>
      <point x="361" y="663" type="line"/>
      <point x="337" y="662" type="line" smooth="yes"/>
      <point x="217" y="657"/>
      <point x="224" y="647"/>
      <point x="244" y="591" type="curve" smooth="yes"/>
      <point x="404" y="148" type="line"/>
      <point x="565" y="569" type="line" smooth="yes"/>
      <point x="593" y="642"/>
      <point x="600" y="658"/>
      <point x="483" y="662" type="curve" smooth="yes"/>
      <point x="453" y="663" type="line"/>
      <point x="453" y="689" type="line"/>
      <point x="711" y="689" type="line"/>
      <point x="711" y="663" type="line"/>
      <point x="634" y="658"/>
      <point x="628" y="652"/>
      <point x="600" y="578" type="curve" smooth="yes"/>
      <point x="371" y="-16" type="line"/>
    </contour>
  </outline>
</glyph>
<glyph name="W" format="2">
  <advance width="1025"/>
  <unicode hex="0057"/>
  <outline>
    <contour>
      <point x="517" y="607" type="line"/>
      <point x="533" y="559" type="line"/>
      <point x="340" y="-16" type="line"/>
      <point x="322" y="-16" type="line"/>
      <point x="119" y="607" type="line" smooth="yes"/>
      <point x="103" y="655"/>
      <point x="101" y="656"/>
      <point x="9" y="663" type="curve"/>
      <point x="9" y="689" type="line"/>
      <point x="327" y="689" type="line"/>
      <point x="327" y="663" type="line"/>
      <point x="220" y="655"/>
      <point x="223" y="644"/>
      <point x="250" y="560" type="curve" smooth="yes"/>
      <point x="373" y="172" type="line"/>
    </contour>
    <contour>
      <point x="502" y="562" type="line" smooth="yes"/>
      <point x="472" y="654"/>
      <point x="465" y="657"/>
      <point x="393" y="663" type="curve"/>
      <point x="393" y="689" type="line"/>
      <point x="705" y="689" type="line"/>
      <point x="705" y="663" type="line"/>
      <point x="590" y="654"/>
      <point x="591" y="645"/>
      <point x="618" y="560" type="curve" smooth="yes"/>
      <point x="741" y="172" type="line"/>
      <point x="878" y="585" type="line" smooth="yes"/>
      <point x="896" y="640"/>
      <point x="905" y="653"/>
      <point x="807" y="661" type="curve" smooth="yes"/>
      <point x="782" y="663" type="line"/>
      <point x="782" y="689" type="line"/>
      <point x="1016" y="689" type="line"/>
      <point x="1016" y="663" type="line"/>
      <point x="933" y="654"/>
      <point x="931" y="647"/>
      <point x="908" y="578" type="curve" smooth="yes"/>
      <point x="709" y="-16" type="line"/>
      <point x="691" y="-16" type="line"/>
    </contour>
  </outline>
</glyph>
<glyph name="X" format="2">
  <advance width="753"/>
  <unicode hex="0058"/>
  <outline>
    <contour>
      <point x="382" y="385" type="line"/>
      <point x="512" y="576" type="line" smooth="yes"/>
      <point x="558" y="643"/>
      <point x="550" y="658"/>
      <point x="461" y="662" type="curve" smooth="yes"/>
      <point x="438" y="663" type="line"/>
      <point x="438" y="689" type="line"/>
      <point x="709" y="689" type="line"/>
      <point x="709" y="663" type="line"/>
      <point x="677" y="660" type="line" smooth="yes"/>
      <point x="597" y="652"/>
      <point x="587" y="631"/>
      <point x="536" y="556" type="curve" smooth="yes"/>
      <point x="400" y="358" type="line"/>
    </contour>
    <contour>
      <point x="19" y="689" type="line"/>
      <point x="352" y="689" type="line"/>
      <point x="352" y="663" type="line"/>
      <point x="323" y="662" type="line" smooth="yes"/>
      <point x="234" y="659"/>
      <point x="245" y="641"/>
      <point x="270" y="603" type="curve" smooth="yes"/>
      <point x="406" y="396" type="line"/>
      <point x="409" y="391" type="line"/>
      <point x="612" y="84" type="line" smooth="yes"/>
      <point x="641" y="41"/>
      <point x="652" y="35"/>
      <point x="722" y="28" type="curve" smooth="yes"/>
      <point x="744" y="26" type="line"/>
      <point x="744" y="0" type="line"/>
      <point x="393" y="0" type="line"/>
      <point x="393" y="26" type="line"/>
      <point x="420" y="28" type="line" smooth="yes"/>
      <point x="516" y="35"/>
      <point x="502" y="52"/>
      <point x="471" y="100" type="curve" smooth="yes"/>
      <point x="332" y="311" type="line"/>
      <point x="328" y="317" type="line"/>
      <point x="129" y="619" type="line" smooth="yes"/>
      <point x="108" y="651"/>
      <point x="104" y="658"/>
      <point x="19" y="663" type="curve"/>
    </contour>
    <contour>
      <point x="359" y="323" type="line"/>
      <point x="216" y="113" type="line" smooth="yes"/>
      <point x="170" y="46"/>
      <point x="174" y="32"/>
      <point x="282" y="27" type="curve" smooth="yes"/>
      <point x="305" y="26" type="line"/>
      <point x="305" y="0" type="line"/>
      <point x="9" y="0" type="line"/>
      <point x="9" y="26" type="line"/>
      <point x="41" y="29" type="line" smooth="yes"/>
      <point x="127" y="37"/>
      <point x="130" y="42"/>
      <point x="192" y="133" type="curve" smooth="yes"/>
      <point x="342" y="352" type="line"/>
    </contour>
  </outline>
</glyph>
<glyph name="Y" format="2">
  <advance width="721"/>
  <unicode hex="0059"/>
  <outline>
    <contour>
      <point x="195" y="0" type="line"/>
      <point x="195" y="26" type="line"/>
      <point x="218" y="26" type="line" smooth="yes"/>
      <point x="301" y="26"/>
      <point x="310" y="35"/>
      <point x="310" y="71" type="curve" smooth="yes"/>
      <point x="310" y="300" type="line"/>
      <point x="114" y="619" type="line" smooth="yes"/>
      <point x="96" y="649"/>
      <point x="91" y="657"/>
      <point x="9" y="663" type="curve"/>
      <point x="9" y="689" type="line"/>
      <point x="362" y="689" type="line"/>
      <point x="362" y="663" type="line"/>
      <point x="332" y="662" type="line" smooth="yes"/>
      <point x="223" y="658"/>
      <point x="231" y="640"/>
      <point x="258" y="594" type="curve" smooth="yes"/>
      <point x="409" y="334" type="line"/>
      <point x="553" y="569" type="line" smooth="yes"/>
      <point x="591" y="631"/>
      <point x="588" y="652"/>
      <point x="482" y="661" type="curve" smooth="yes"/>
      <point x="458" y="663" type="line"/>
      <point x="458" y="689" type="line"/>
      <point x="712" y="689" type="line"/>
      <point x="712" y="663" type="line"/>
      <point x="693" y="662" type="line" smooth="yes"/>
      <point x="645" y="659"/>
      <point x="635" y="649"/>
      <point x="581" y="559" type="curve" smooth="yes"/>
      <point x="421" y="294" type="line"/>
      <point x="421" y="72" type="line" smooth="yes"/>
      <point x="421" y="35"/>
      <point x="435" y="26"/>
      <point x="509" y="26" type="curve" smooth="yes"/>
      <point x="536" y="26" type="line"/>
      <point x="536" y="0" type="line"/>
    </contour>
  </outline>
</glyph>
<glyph name="Z" format="2">
  <advance width="594"/>
  <unicode hex="005A"/>
  <outline>
    <contour>
      <point x="9" y="0" type="line"/>
      <point x="9" y="23" type="line"/>
      <point x="447" y="666" type="line"/>
      <point x="228" y="666" type="line"/>
      <point x="205" y="662"/>
      <point x="141" y="586"/>
      <point x="77" y="452" type="curve"/>
      <point x="61" y="456" type="line"/>
      <point x="90" y="689" type="line"/>
      <point x="572" y="689" type="line"/>
      <point x="572" y="666" type="line"/>
      <point x="134" y="23" type="line"/>
      <point x="372" y="26" type="line"/>
      <point x="425" y="41"/>
      <point x="480" y="117"/>
      <point x="551" y="240" type="curve"/>
      <point x="566" y="238" type="line"/>
      <point x="538" y="0" type="line"/>
    </contour>
  </outline>
</glyph>
<glyph name="bracketleft" format="2">
  <advance width="448"/>
  <unicode hex="005B"/>
  <outline>
    <contour>
      <point x="134" y="-143" type="line"/>
      <point x="134" y="733" type="line"/>
      <point x="368" y="733" type="line"/>
      <point x="368" y="707" type="line"/>
      <point x="351" y="707" type="line" smooth="yes"/>
      <point x="246" y="707"/>
      <point x="230" y="698"/>
      <point x="230" y="661" type="curve" smooth="yes"/>
      <point x="230" y="-71" type="line" smooth="yes"/>
      <point x="230" y="-108"/>
      <point x="247" y="-117"/>
      <point x="351" y="-117" type="curve" smooth="yes"/>
      <point x="368" y="-117" type="line"/>
      <point x="368" y="-143" type="line"/>
    </contour>
  </outline>
</glyph>
<glyph name="asciicircum" format="2">
  <advance width="454"/>
  <unicode hex="005E"/>
  <outline>
    <contour>
      <point x="92" y="306" type="line"/>
      <point x="92" y="383" type="line"/>
      <point x="362" y="383" type="line"/>
      <point x="362" y="306" type="line"/>
    </contour>
  </outline>
</glyph>
<glyph name="underscore" format="2">
  <advance width="454"/>
  <unicode hex="005F"/>
  <outline>
    <contour>
      <point x="-20" y="-124" type="line"/>
      <point x="-20" y="-76" type="line"/>
      <point x="474" y="-76" type="line"/>
      <point x="474" y="-124" type="line"/>
    </contour>
  </outline>
</glyph>
<glyph name="b" format="2">
  <advance width="552"/>
  <unicode hex="0062"/>
  <outline>
    <contour>
      <point x="292" y="-11" type="curve" smooth="yes"/>
      <point x="239" y="-11"/>
      <point x="199" y="6"/>
      <point x="151" y="50" type="curve" smooth="yes"/>
      <point x="135" y="65"/>
      <point x="122" y="65"/>
      <point x="119" y="51" type="curve" smooth="yes"/>
      <point x="107" y="0" type="line"/>
      <point x="73" y="0" type="line"/>
      <point x="73" y="633" type="line" smooth="yes"/>
      <point x="73" y="662"/>
      <point x="54" y="672"/>
      <point x="-2" y="672" type="curve"/>
      <point x="-2" y="697" type="line"/>
      <point x="168" y="707" type="line"/>
      <point x="168" y="350" type="line"/>
      <point x="200" y="403"/>
      <point x="255" y="432"/>
      <point x="321" y="432" type="curve" smooth="yes"/>
      <point x="429" y="432"/>
      <point x="517" y="329"/>
      <point x="517" y="203" type="curve" smooth="yes"/>
      <point x="517" y="76"/>
      <point x="425" y="-11"/>
    </contour>
    <contour>
      <point x="286" y="15" type="curve" smooth="yes"/>
      <point x="369" y="15"/>
      <point x="406" y="69"/>
      <point x="406" y="187" type="curve" smooth="yes"/>
      <point x="406" y="341"/>
      <point x="373" y="398"/>
      <point x="283" y="398" type="curve" smooth="yes"/>
      <point x="217" y="398"/>
      <point x="167" y="340"/>
      <point x="167" y="262" type="curve" smooth="yes"/>
      <point x="167" y="130" type="line" smooth="yes"/>
      <point x="167" y="66"/>
      <point x="220" y="15"/>
    </contour>
  </outline>
</glyph>
<glyph name="c" format="2">
  <advance width="467"/>
  <unicode hex="0063"/>
  <outline>
    <contour>
      <point x="261" y="-10" type="curve" smooth="yes"/>
      <point x="134" y="-10"/>
      <point x="38" y="86"/>
      <point x="38" y="213" type="curve" smooth="yes"/>
      <point x="38" y="333"/>
      <point x="139" y="433"/>
      <point x="262" y="433" type="curve" smooth="yes"/>
      <point x="364" y="433"/>
      <point x="434" y="387"/>
      <point x="434" y="319" type="curve" smooth="yes"/>
      <point x="434" y="278"/>
      <point x="408" y="247"/>
      <point x="372" y="247" type="curve" smooth="yes"/>
      <point x="341" y="247"/>
      <point x="321" y="264"/>
      <point x="321" y="291" type="curve" smooth="yes"/>
      <point x="321" y="312"/>
      <point x="360" y="360"/>
      <point x="360" y="372" type="curve" smooth="yes"/>
      <point x="360" y="390"/>
      <point x="315" y="410"/>
      <point x="274" y="410" type="curve" smooth="yes"/>
      <point x="187" y="410"/>
      <point x="148" y="349"/>
      <point x="148" y="211" type="curve" smooth="yes"/>
      <point x="148" y="85"/>
      <point x="191" y="24"/>
      <point x="279" y="24" type="curve" smooth="yes"/>
      <point x="341" y="24"/>
      <point x="393" y="53"/>
      <point x="430" y="108" type="curve"/>
      <point x="447" y="97" type="line"/>
      <point x="400" y="25"/>
      <point x="338" y="-10"/>
    </contour>
  </outline>
</glyph>
<glyph name="d" format="2">
  <advance width="567"/>
  <unicode hex="0064"/>
  <outline>
    <contour>
      <point x="239" y="-10" type="curve" smooth="yes"/>
      <point x="127" y="-10"/>
      <point x="38" y="92"/>
      <point x="38" y="219" type="curve" smooth="yes"/>
      <point x="38" y="335"/>
      <point x="127" y="433"/>
      <point x="232" y="433" type="curve" smooth="yes"/>
      <point x="299" y="433"/>
      <point x="355" y="409"/>
      <point x="388" y="364" type="curve"/>
      <point x="388" y="628" type="line" smooth="yes"/>
      <point x="388" y="665"/>
      <point x="376" y="672"/>
      <point x="309" y="672" type="curve" smooth="yes"/>
      <point x="300" y="672" type="line"/>
      <point x="300" y="697" type="line"/>
      <point x="482" y="707" type="line"/>
      <point x="482" y="57" type="line" smooth="yes"/>
      <point x="482" y="35"/>
      <point x="487" y="33"/>
      <point x="559" y="28" type="curve"/>
      <point x="559" y="3" type="line"/>
      <point x="387" y="-2" type="line"/>
      <point x="387" y="100" type="line"/>
      <point x="359" y="31"/>
      <point x="304" y="-10"/>
    </contour>
    <contour>
      <point x="272" y="30" type="curve" smooth="yes"/>
      <point x="335" y="30"/>
      <point x="388" y="101"/>
      <point x="388" y="185" type="curve" smooth="yes"/>
      <point x="388" y="287" type="line" smooth="yes"/>
      <point x="388" y="350"/>
      <point x="334" y="402"/>
      <point x="269" y="402" type="curve" smooth="yes"/>
      <point x="184" y="402"/>
      <point x="149" y="352"/>
      <point x="149" y="231" type="curve" smooth="yes"/>
      <point x="149" y="88"/>
      <point x="184" y="30"/>
    </contour>
  </outline>
</glyph>
<glyph name="e" format="2">
  <advance width="480"/>
  <unicode hex="0065"/>
  <outline>
    <contour>
      <point x="125" y="268" type="line"/>
      <point x="346" y="268" type="line"/>
      <point x="338" y="358"/>
      <point x="302" y="410"/>
      <point x="248" y="410" type="curve" smooth="yes"/>
      <point x="183" y="410"/>
      <point x="145" y="348"/>
      <point x="145" y="242" type="curve" smooth="yes"/>
      <point x="145" y="97"/>
      <point x="191" y="27"/>
      <point x="285" y="27" type="curve" smooth="yes"/>
      <point x="343" y="27"/>
      <point x="388" y="52"/>
      <point x="429" y="108" type="curve"/>
      <point x="446" y="97" type="line"/>
      <point x="399" y="25"/>
      <point x="340" y="-10"/>
      <point x="266" y="-10" type="curve" smooth="yes"/>
      <point x="137" y="-10"/>
      <point x="38" y="86"/>
      <point x="38" y="210" type="curve" smooth="yes"/>
      <point x="38" y="332"/>
      <point x="137" y="433"/>
      <point x="256" y="433" type="curve" smooth="yes"/>
      <point x="364" y="433"/>
      <point x="435" y="362"/>
      <point x="447" y="242" type="curve"/>
      <point x="125" y="242" type="line"/>
    </contour>
  </outline>
</glyph>
<glyph name="f" format="2">
  <advance width="317"/>
  <unicode hex="0066"/>
  <outline>
    <contour>
      <point x="188" y="60" type="line" smooth="yes"/>
      <point x="188" y="37"/>
      <point x="205" y="27"/>
      <point x="244" y="26" type="curve" smooth="yes"/>
      <point x="273" y="25" type="line"/>
      <point x="273" y="0" type="line"/>
      <point x="25" y="0" type="line"/>
      <point x="25" y="25" type="line"/>
      <point x="33" y="25" type="line" smooth="yes"/>
      <point x="77" y="25"/>
      <point x="94" y="36"/>
      <point x="94" y="65" type="curve" smooth="yes"/>
      <point x="94" y="551" type="line" smooth="yes"/>
      <point x="94" y="630"/>
      <point x="179" y="703"/>
      <point x="272" y="703" type="curve" smooth="yes"/>
      <point x="350" y="703"/>
      <point x="403" y="662"/>
      <point x="403" y="601" type="curve" smooth="yes"/>
      <point x="403" y="563"/>
      <point x="379" y="536"/>
      <point x="345" y="536" type="curve" smooth="yes"/>
      <point x="316" y="536"/>
      <point x="293" y="557"/>
      <point x="293" y="583" type="curve" smooth="yes"/>
      <point x="293" y="613"/>
      <point x="328" y="638"/>
      <point x="328" y="658" type="curve" smooth="yes"/>
      <point x="328" y="672"/>
      <point x="308" y="683"/>
      <point x="281" y="683" type="curve" smooth="yes"/>
      <point x="220" y="683"/>
      <point x="188" y="639"/>
      <point x="188" y="553" type="curve" smooth="yes"/>
    </contour>
    <contour>
      <point x="298" y="423" type="line"/>
      <point x="298" y="394" type="line"/>
      <point x="19" y="394" type="line"/>
      <point x="19" y="423" type="line"/>
    </contour>
  </outline>
</glyph>
<glyph name="i" format="2">
  <advance width="292"/>
  <unicode hex="0069"/>
  <outline>
    <contour>
      <point x="144" y="528" type="curve" smooth="yes"/>
      <point x="112" y="528"/>
      <point x="85" y="555"/>
      <point x="85" y="589" type="curve" smooth="yes"/>
      <point x="85" y="623"/>
      <point x="112" y="651"/>
      <point x="144" y="651" type="curve" smooth="yes"/>
      <point x="176" y="651"/>
      <point x="203" y="623"/>
      <point x="203" y="589" type="curve" smooth="yes"/>
      <point x="203" y="555"/>
      <point x="176" y="528"/>
    </contour>
    <contour>
      <point x="24" y="0" type="line"/>
      <point x="24" y="25" type="line"/>
      <point x="32" y="25" type="line" smooth="yes"/>
      <point x="81" y="25"/>
      <point x="103" y="38"/>
      <point x="103" y="65" type="curve" smooth="yes"/>
      <point x="103" y="368" type="line" smooth="yes"/>
      <point x="103" y="383"/>
      <point x="91" y="387"/>
      <point x="23" y="398" type="curve"/>
      <point x="23" y="423" type="line"/>
      <point x="197" y="428" type="line"/>
      <point x="197" y="60" type="line" smooth="yes"/>
      <point x="197" y="35"/>
      <point x="214" y="25"/>
      <point x="258" y="25" type="curve" smooth="yes"/>
      <point x="284" y="25" type="line"/>
      <point x="284" y="0" type="line"/>
    </contour>
  </outline>
</glyph>
<glyph name="k" format="2">
  <advance width="525"/>
  <unicode hex="006B"/>
  <outline>
    <contour>
      <point x="182" y="60" type="curve" smooth="yes"/>
      <point x="182" y="707" type="line"/>
      <point x="18" y="697" type="line"/>
      <point x="18" y="672" type="line"/>
      <point x="77" y="672"/>
      <point x="88" y="666"/>
      <point x="88" y="632" type="curve" smooth="yes"/>
      <point x="88" y="65" type="line" smooth="yes"/>
      <point x="88" y="36"/>
      <point x="72" y="25"/>
      <point x="32" y="25" type="curve" smooth="yes"/>
      <point x="24" y="25" type="line"/>
      <point x="24" y="0" type="line"/>
      <point x="236" y="0" type="line"/>
      <point x="236" y="25" type="line"/>
      <point x="217" y="25" type="line" smooth="yes"/>
      <point x="192" y="25"/>
      <point x="182" y="35"/>
    </contour>
    <contour>
      <point x="492" y="423" type="line"/>
      <point x="301" y="423" type="line"/>
      <point x="301" y="398" type="line"/>
      <point x="358" y="392"/>
      <point x="366" y="378"/>
      <point x="329" y="348" type="curve" smooth="yes"/>
      <point x="158" y="206" type="line"/>
      <point x="158" y="173" type="line"/>
      <point x="233" y="235" type="line"/>
      <point x="369" y="348" type="line" smooth="yes"/>
      <point x="416" y="387"/>
      <point x="443" y="398"/>
      <point x="492" y="398" type="curve"/>
    </contour>
    <contour>
      <point x="270" y="279" type="line"/>
      <point x="202" y="224" type="line"/>
      <point x="324" y="75" type="line" smooth="yes"/>
      <point x="354" y="38"/>
      <point x="349" y="28"/>
      <point x="298" y="25" type="curve"/>
      <point x="298" y="0" type="line"/>
      <point x="517" y="0" type="line"/>
      <point x="517" y="25" type="line"/>
      <point x="476" y="28"/>
      <point x="473" y="30"/>
      <point x="432" y="80" type="curve" smooth="yes"/>
    </contour>
  </outline>
</glyph>
<glyph name="l" format="2">
  <advance width="277"/>
  <unicode hex="006C"/>
  <outline>
    <contour>
      <point x="24" y="0" type="line"/>
      <point x="24" y="25" type="line"/>
      <point x="32" y="25" type="line" smooth="yes"/>
      <point x="82" y="25"/>
      <point x="93" y="32"/>
      <point x="93" y="65" type="curve" smooth="yes"/>
      <point x="93" y="626" type="line" smooth="yes"/>
      <point x="93" y="661"/>
      <point x="78" y="670"/>
      <point x="18" y="672" type="curve"/>
      <point x="18" y="697" type="line"/>
      <point x="187" y="707" type="line"/>
      <point x="187" y="60" type="line" smooth="yes"/>
      <point x="187" y="36"/>
      <point x="201" y="25"/>
      <point x="232" y="25" type="curve" smooth="yes"/>
      <point x="269" y="25" type="line"/>
      <point x="269" y="0" type="line"/>
    </contour>
  </outline>
</glyph>
<glyph name="m" format="2">
  <advance width="814"/>
  <unicode hex="006D"/>
  <outline>
    <contour>
      <point x="24" y="0" type="line"/>
      <point x="24" y="25" type="line"/>
      <point x="32" y="25" type="line" smooth="yes"/>
      <point x="77" y="25"/>
      <point x="93" y="36"/>
      <point x="93" y="65" type="curve" smooth="yes"/>
      <point x="93" y="368" type="line" smooth="yes"/>
      <point x="93" y="385"/>
      <point x="86" y="388"/>
      <point x="29" y="398" type="curve"/>
      <point x="29" y="423" type="line"/>
      <point x="188" y="428" type="line"/>
      <point x="188" y="340" type="line"/>
      <point x="220" y="401"/>
      <point x="269" y="433"/>
      <point x="329" y="433" type="curve" smooth="yes"/>
      <point x="395" y="433"/>
      <point x="440" y="401"/>
      <point x="460" y="340" type="curve"/>
      <point x="495" y="398"/>
      <point x="549" y="433"/>
      <point x="603" y="433" type="curve" smooth="yes"/>
      <point x="684" y="433"/>
      <point x="735" y="385"/>
      <point x="735" y="309" type="curve" smooth="yes"/>
      <point x="735" y="60" type="line" smooth="yes"/>
      <point x="735" y="34"/>
      <point x="746" y="25"/>
      <point x="780" y="25" type="curve" smooth="yes"/>
      <point x="806" y="25" type="line"/>
      <point x="806" y="0" type="line"/>
      <point x="572" y="0" type="line"/>
      <point x="572" y="25" type="line"/>
      <point x="580" y="25" type="line" smooth="yes"/>
      <point x="627" y="25"/>
      <point x="641" y="34"/>
      <point x="641" y="65" type="curve" smooth="yes"/>
      <point x="641" y="321" type="line" smooth="yes"/>
      <point x="641" y="378"/>
      <point x="623" y="399"/>
      <point x="577" y="399" type="curve" smooth="yes"/>
      <point x="528" y="399"/>
      <point x="461" y="333"/>
      <point x="461" y="286" type="curve" smooth="yes"/>
      <point x="461" y="60" type="line" smooth="yes"/>
      <point x="461" y="34"/>
      <point x="472" y="25"/>
      <point x="506" y="25" type="curve" smooth="yes"/>
      <point x="520" y="25" type="line"/>
      <point x="520" y="0" type="line"/>
      <point x="298" y="0" type="line"/>
      <point x="298" y="25" type="line"/>
      <point x="306" y="25" type="line" smooth="yes"/>
      <point x="353" y="25"/>
      <point x="367" y="34"/>
      <point x="367" y="65" type="curve" smooth="yes"/>
      <point x="367" y="321" type="line" smooth="yes"/>
      <point x="367" y="378"/>
      <point x="349" y="399"/>
      <point x="303" y="399" type="curve" smooth="yes"/>
      <point x="255" y="399"/>
      <point x="187" y="333"/>
      <point x="187" y="286" type="curve" smooth="yes"/>
      <point x="187" y="60" type="line" smooth="yes"/>
      <point x="187" y="32"/>
      <point x="195" y="25"/>
      <point x="227" y="25" type="curve" smooth="yes"/>
      <point x="246" y="25" type="line"/>
      <point x="246" y="0" type="line"/>
    </contour>
  </outline>
</glyph>
<glyph name="n" format="2">
  <advance width="550"/>
  <unicode hex="006E"/>
  <outline>
    <contour>
      <point x="24" y="0" type="line"/>
      <point x="24" y="25" type="line"/>
      <point x="32" y="25" type="line" smooth="yes"/>
      <point x="77" y="25"/>
      <point x="93" y="36"/>
      <point x="93" y="65" type="curve" smooth="yes"/>
      <point x="93" y="368" type="line" smooth="yes"/>
      <point x="93" y="385"/>
      <point x="79" y="391"/>
      <point x="24" y="398" type="curve"/>
      <point x="24" y="423" type="line"/>
      <point x="188" y="428" type="line"/>
      <point x="188" y="340" type="line"/>
      <point x="225" y="402"/>
      <point x="274" y="433"/>
      <point x="334" y="433" type="curve" smooth="yes"/>
      <point x="416" y="433"/>
      <point x="471" y="383"/>
      <point x="471" y="309" type="curve" smooth="yes"/>
      <point x="471" y="60" type="line" smooth="yes"/>
      <point x="471" y="34"/>
      <point x="482" y="25"/>
      <point x="516" y="25" type="curve" smooth="yes"/>
      <point x="542" y="25" type="line"/>
      <point x="542" y="0" type="line"/>
      <point x="308" y="0" type="line"/>
      <point x="308" y="25" type="line"/>
      <point x="316" y="25" type="line" smooth="yes"/>
      <point x="361" y="25"/>
      <point x="377" y="36"/>
      <point x="377" y="65" type="curve" smooth="yes"/>
      <point x="377" y="324" type="line" smooth="yes"/>
      <point x="377" y="377"/>
      <point x="357" y="399"/>
      <point x="308" y="399" type="curve" smooth="yes"/>
      <point x="255" y="399"/>
      <point x="187" y="335"/>
      <point x="187" y="285" type="curve" smooth="yes"/>
      <point x="187" y="60" type="line" smooth="yes"/>
      <point x="187" y="33"/>
      <point x="199" y="25"/>
      <point x="237" y="25" type="curve" smooth="yes"/>
      <point x="256" y="25" type="line"/>
      <point x="256" y="0" type="line"/>
    </contour>
  </outline>
</glyph>
<glyph name="p" format="2">
  <advance width="567"/>
  <unicode hex="0070"/>
  <outline>
    <contour>
      <point x="14" y="-200" type="line"/>
      <point x="14" y="-174" type="line"/>
      <point x="22" y="-174" type="line" smooth="yes"/>
      <point x="71" y="-174"/>
      <point x="88" y="-164"/>
      <point x="88" y="-134" type="curve" smooth="yes"/>
      <point x="88" y="363" type="line" smooth="yes"/>
      <point x="88" y="385"/>
      <point x="70" y="393"/>
      <point x="8" y="398" type="curve"/>
      <point x="8" y="423" type="line"/>
      <point x="183" y="428" type="line"/>
      <point x="183" y="350" type="line"/>
      <point x="215" y="405"/>
      <point x="262" y="432"/>
      <point x="325" y="432" type="curve" smooth="yes"/>
      <point x="440" y="432"/>
      <point x="532" y="331"/>
      <point x="532" y="203" type="curve" smooth="yes"/>
      <point x="532" y="85"/>
      <point x="442" y="-11"/>
      <point x="332" y="-11" type="curve" smooth="yes"/>
      <point x="264" y="-11"/>
      <point x="218" y="13"/>
      <point x="182" y="67" type="curve"/>
      <point x="182" y="-139" type="line" smooth="yes"/>
      <point x="182" y="-166"/>
      <point x="194" y="-174"/>
      <point x="232" y="-174" type="curve" smooth="yes"/>
      <point x="261" y="-174" type="line"/>
      <point x="261" y="-200" type="line"/>
    </contour>
    <contour>
      <point x="301" y="18" type="curve" smooth="yes"/>
      <point x="386" y="18"/>
      <point x="421" y="69"/>
      <point x="421" y="194" type="curve" smooth="yes"/>
      <point x="421" y="341"/>
      <point x="387" y="398"/>
      <point x="298" y="398" type="curve" smooth="yes"/>
      <point x="232" y="398"/>
      <point x="182" y="339"/>
      <point x="182" y="261" type="curve" smooth="yes"/>
      <point x="182" y="161" type="line" smooth="yes"/>
      <point x="182" y="81"/>
      <point x="235" y="18"/>
    </contour>
  </outline>
</glyph>
<glyph name="r" format="2">
  <advance width="395"/>
  <unicode hex="0072"/>
  <outline>
    <contour>
      <point x="24" y="0" type="line"/>
      <point x="24" y="25" type="line"/>
      <point x="32" y="25" type="line" smooth="yes"/>
      <point x="77" y="25"/>
      <point x="93" y="36"/>
      <point x="93" y="65" type="curve" smooth="yes"/>
      <point x="93" y="368" type="line" smooth="yes"/>
      <point x="93" y="385"/>
      <point x="86" y="388"/>
      <point x="29" y="398" type="curve"/>
      <point x="29" y="423" type="line"/>
      <point x="187" y="428" type="line"/>
      <point x="187" y="322" type="line"/>
      <point x="216" y="393"/>
      <point x="256" y="433"/>
      <point x="297" y="433" type="curve" smooth="yes"/>
      <point x="337" y="433"/>
      <point x="365" y="407"/>
      <point x="365" y="371" type="curve" smooth="yes"/>
      <point x="365" y="343"/>
      <point x="343" y="319"/>
      <point x="316" y="319" type="curve" smooth="yes"/>
      <point x="291" y="319"/>
      <point x="258" y="360"/>
      <point x="249" y="360" type="curve" smooth="yes"/>
      <point x="223" y="360"/>
      <point x="187" y="308"/>
      <point x="187" y="271" type="curve"/>
      <point x="187" y="60" type="line" smooth="yes"/>
      <point x="187" y="31"/>
      <point x="197" y="25"/>
      <point x="249" y="25" type="curve" smooth="yes"/>
      <point x="268" y="25" type="line"/>
      <point x="268" y="0" type="line"/>
    </contour>
  </outline>
</glyph>
<glyph name="u" format="2">
  <advance width="545"/>
  <unicode hex="0075"/>
  <outline>
    <contour>
      <point x="219" y="-10" type="curve" smooth="yes"/>
      <point x="137" y="-10"/>
      <point x="82" y="40"/>
      <point x="82" y="114" type="curve" smooth="yes"/>
      <point x="82" y="363" type="line" smooth="yes"/>
      <point x="82" y="389"/>
      <point x="71" y="398"/>
      <point x="37" y="398" type="curve" smooth="yes"/>
      <point x="21" y="398" type="line"/>
      <point x="21" y="423" type="line"/>
      <point x="176" y="428" type="line"/>
      <point x="176" y="104" type="line" smooth="yes"/>
      <point x="176" y="47"/>
      <point x="195" y="24"/>
      <point x="243" y="24" type="curve" smooth="yes"/>
      <point x="302" y="24"/>
      <point x="366" y="91"/>
      <point x="366" y="152" type="curve" smooth="yes"/>
      <point x="366" y="363" type="line" smooth="yes"/>
      <point x="366" y="389"/>
      <point x="355" y="398"/>
      <point x="321" y="398" type="curve" smooth="yes"/>
      <point x="302" y="398" type="line"/>
      <point x="302" y="423" type="line"/>
      <point x="460" y="428" type="line"/>
      <point x="460" y="55" type="line" smooth="yes"/>
      <point x="460" y="37"/>
      <point x="480" y="29"/>
      <point x="537" y="25" type="curve"/>
      <point x="537" y="0" type="line"/>
      <point x="365" y="-5" type="line"/>
      <point x="365" y="93" type="line"/>
      <point x="339" y="28"/>
      <point x="286" y="-10"/>
    </contour>
  </outline>
</glyph>
<glyph name="v" format="2">
  <advance width="501"/>
  <unicode hex="0076"/>
  <outline>
    <contour>
      <point x="241" y="-12" type="line"/>
      <point x="80" y="364" type="line" smooth="yes"/>
      <point x="69" y="392"/>
      <point x="66" y="393"/>
      <point x="8" y="398" type="curve"/>
      <point x="8" y="423" type="line"/>
      <point x="243" y="423" type="line"/>
      <point x="243" y="398" type="line"/>
      <point x="175" y="393"/>
      <point x="168" y="386"/>
      <point x="187" y="340" type="curve" smooth="yes"/>
      <point x="286" y="107" type="line"/>
      <point x="386" y="336" type="line" smooth="yes"/>
      <point x="407" y="383"/>
      <point x="398" y="392"/>
      <point x="332" y="398" type="curve"/>
      <point x="332" y="423" type="line"/>
      <point x="493" y="423" type="line"/>
      <point x="493" y="398" type="line"/>
      <point x="445" y="394"/>
      <point x="442" y="392"/>
      <point x="417" y="336" type="curve" smooth="yes"/>
      <point x="257" y="-12" type="line"/>
    </contour>
  </outline>
</glyph>
<glyph name="w" format="2">
  <advance width="695"/>
  <unicode hex="0077"/>
  <outline>
    <contour>
      <point x="8" y="423" type="line"/>
      <point x="215" y="423" type="line"/>
      <point x="215" y="398" type="line"/>
      <point x="170" y="394"/>
      <point x="167" y="388"/>
      <point x="184" y="340" type="curve" smooth="yes"/>
      <point x="259" y="128" type="line"/>
      <point x="351" y="375" type="line"/>
      <point x="365" y="329" type="line"/>
      <point x="232" y="-12" type="line"/>
      <point x="216" y="-12" type="line"/>
      <point x="80" y="364" type="line" smooth="yes"/>
      <point x="71" y="390"/>
      <point x="62" y="394"/>
      <point x="8" y="398" type="curve"/>
    </contour>
    <contour>
      <point x="316" y="364" type="line" smooth="yes"/>
      <point x="306" y="393"/>
      <point x="303" y="395"/>
      <point x="272" y="398" type="curve"/>
      <point x="272" y="423" type="line"/>
      <point x="460" y="423" type="line"/>
      <point x="460" y="398" type="line"/>
      <point x="402" y="393"/>
      <point x="400" y="390"/>
      <point x="417" y="340" type="curve" smooth="yes"/>
      <point x="492" y="122" type="line"/>
      <point x="572" y="336" type="line" smooth="yes"/>
      <point x="591" y="387"/>
      <point x="588" y="392"/>
      <point x="531" y="398" type="curve"/>
      <point x="531" y="423" type="line"/>
      <point x="687" y="423" type="line"/>
      <point x="687" y="398" type="line"/>
      <point x="629" y="392"/>
      <point x="623" y="387"/>
      <point x="603" y="336" type="curve" smooth="yes"/>
      <point x="468" y="-12" type="line"/>
      <point x="452" y="-12" type="line"/>
    </contour>
  </outline>
</glyph>
<glyph name="x" format="2">
  <advance width="525"/>
  <unicode hex="0078"/>
  <outline>
    <contour>
      <point x="24" y="423" type="line"/>
      <point x="24" y="398" type="line"/>
      <point x="75" y="395"/>
      <point x="79" y="393"/>
      <point x="102" y="362" type="curve" smooth="yes"/>
      <point x="231" y="191" type="line"/>
      <point x="232" y="189" type="line"/>
      <point x="323" y="68" type="line" smooth="yes"/>
      <point x="348" y="34"/>
      <point x="346" y="32"/>
      <point x="287" y="25" type="curve"/>
      <point x="287" y="0" type="line"/>
      <point x="517" y="0" type="line"/>
      <point x="517" y="25" type="line"/>
      <point x="464" y="29"/>
      <point x="458" y="32"/>
      <point x="430" y="69" type="curve" smooth="yes"/>
      <point x="295" y="250" type="line"/>
      <point x="294" y="251" type="line"/>
      <point x="209" y="363" type="line" smooth="yes"/>
      <point x="191" y="388"/>
      <point x="196" y="393"/>
      <point x="239" y="398" type="curve"/>
      <point x="239" y="423" type="line"/>
    </contour>
    <contour>
      <point x="256" y="200" type="line"/>
      <point x="241" y="222" type="line"/>
      <point x="131" y="94" type="line" smooth="yes"/>
      <point x="79" y="34"/>
      <point x="73" y="30"/>
      <point x="19" y="25" type="curve"/>
      <point x="19" y="0" type="line"/>
      <point x="205" y="0" type="line"/>
      <point x="205" y="25" type="line"/>
      <point x="121" y="36"/>
      <point x="118" y="40"/>
      <point x="154" y="82" type="curve" smooth="yes"/>
    </contour>
    <contour>
      <point x="286" y="227" type="line"/>
      <point x="384" y="341" type="line" smooth="yes"/>
      <point x="427" y="391"/>
      <point x="430" y="393"/>
      <point x="487" y="398" type="curve"/>
      <point x="487" y="423" type="line"/>
      <point x="321" y="423" type="line"/>
      <point x="321" y="398" type="line"/>
      <point x="383" y="394"/>
      <point x="388" y="384"/>
      <point x="351" y="341" type="curve" smooth="yes"/>
      <point x="272" y="250" type="line"/>
    </contour>
  </outline>
</glyph>
<glyph name="y" format="2">
  <advance width="500"/>
  <unicode hex="0079"/>
  <outline>
    <contour>
      <point x="239" y="0" type="line"/>
      <point x="80" y="364" type="line" smooth="yes"/>
      <point x="67" y="393"/>
      <point x="65" y="394"/>
      <point x="8" y="398" type="curve"/>
      <point x="8" y="423" type="line"/>
      <point x="243" y="423" type="line"/>
      <point x="243" y="398" type="line"/>
      <point x="173" y="390"/>
      <point x="168" y="385"/>
      <point x="187" y="340" type="curve" smooth="yes"/>
      <point x="287" y="110" type="line"/>
      <point x="386" y="336" type="line" smooth="yes"/>
      <point x="410" y="389"/>
      <point x="405" y="394"/>
      <point x="332" y="398" type="curve"/>
      <point x="332" y="423" type="line"/>
      <point x="492" y="423" type="line"/>
      <point x="492" y="398" type="line"/>
      <point x="444" y="392"/>
      <point x="440" y="389"/>
      <point x="417" y="336" type="curve" smooth="yes"/>
      <point x="254" y="-41" type="line" smooth="yes"/>
      <point x="199" y="-167"/>
      <point x="161" y="-205"/>
      <point x="88" y="-205" type="curve" smooth="yes"/>
      <point x="41" y="-205"/>
      <point x="4" y="-169"/>
      <point x="4" y="-122" type="curve" smooth="yes"/>
      <point x="4" y="-80"/>
      <point x="32" y="-49"/>
      <point x="70" y="-49" type="curve" smooth="yes"/>
      <point x="96" y="-49"/>
      <point x="116" y="-66"/>
      <point x="116" y="-89" type="curve" smooth="yes"/>
      <point x="116" y="-124"/>
      <point x="77" y="-152"/>
      <point x="77" y="-165" type="curve" smooth="yes"/>
      <point x="77" y="-171"/>
      <point x="87" y="-174"/>
      <point x="109" y="-174" type="curve" smooth="yes"/>
      <point x="146" y="-174"/>
      <point x="179" y="-139"/>
      <point x="212" y="-62" type="curve" smooth="yes"/>
    </contour>
  </outline>
</glyph>
<glyph name="z" format="2">
  <advance width="470"/>
  <unicode hex="007A"/>
  <outline>
    <contour>
      <point x="42" y="0" type="line"/>
      <point x="42" y="14" type="line"/>
      <point x="309" y="397" type="line"/>
      <point x="210" y="397" type="line" smooth="yes"/>
      <point x="161" y="397"/>
      <point x="123" y="340"/>
      <point x="77" y="245" type="curve"/>
      <point x="59" y="247" type="line"/>
      <point x="87" y="423" type="line"/>
      <point x="416" y="423" type="line"/>
      <point x="416" y="410" type="line"/>
      <point x="149" y="25" type="line"/>
      <point x="262" y="25" type="line" smooth="yes"/>
      <point x="310" y="25"/>
      <point x="376" y="109"/>
      <point x="408" y="184" type="curve"/>
      <point x="426" y="181" type="line"/>
      <point x="396" y="0" type="line"/>
    </contour>
  </outline>
</glyph>
<glyph name="braceleft" format="2">
  <advance width="453"/>
  <unicode hex="007B"/>
  <outline>
    <contour>
      <point x="370" y="-141" type="line"/>
      <point x="222" y="-139"/>
      <point x="36" y="-70"/>
      <point x="112" y="57" type="curve" smooth="yes"/>
      <point x="177" y="166" type="line" smooth="yes"/>
      <point x="217" y="234"/>
      <point x="173" y="267"/>
      <point x="41" y="283" type="curve"/>
      <point x="41" y="309" type="line"/>
      <point x="173" y="325"/>
      <point x="212" y="368"/>
      <point x="171" y="436" type="curve" smooth="yes"/>
      <point x="112" y="535" type="line" smooth="yes"/>
      <point x="38" y="659"/>
      <point x="213" y="731"/>
      <point x="370" y="733" type="curve"/>
      <point x="370" y="707" type="line"/>
      <point x="273" y="707"/>
      <point x="196" y="696"/>
      <point x="196" y="635" type="curve" smooth="yes"/>
      <point x="196" y="593"/>
      <point x="279" y="494"/>
      <point x="279" y="424" type="curve" smooth="yes"/>
      <point x="279" y="365"/>
      <point x="220" y="324"/>
      <point x="101" y="296" type="curve"/>
      <point x="220" y="269"/>
      <point x="279" y="227"/>
      <point x="279" y="168" type="curve" smooth="yes"/>
      <point x="279" y="98"/>
      <point x="196" y="-1"/>
      <point x="196" y="-43" type="curve" smooth="yes"/>
      <point x="196" y="-97"/>
      <point x="273" y="-115"/>
      <point x="370" y="-115" type="curve"/>
    </contour>
  </outline>
</glyph>
<glyph name="braceright" format="2">
  <advance width="453"/>
  <unicode hex="007D"/>
  <outline>
    <contour>
      <point x="83" y="-141" type="curve"/>
      <point x="83" y="-115" type="line"/>
      <point x="180" y="-115"/>
      <point x="257" y="-104"/>
      <point x="257" y="-43" type="curve" smooth="yes"/>
      <point x="257" y="-1"/>
      <point x="174" y="98"/>
      <point x="174" y="168" type="curve" smooth="yes"/>
      <point x="174" y="227"/>
      <point x="233" y="268"/>
      <point x="352" y="296" type="curve"/>
      <point x="233" y="323"/>
      <point x="174" y="365"/>
      <point x="174" y="424" type="curve" smooth="yes"/>
      <point x="174" y="494"/>
      <point x="257" y="593"/>
      <point x="257" y="635" type="curve" smooth="yes"/>
      <point x="257" y="689"/>
      <point x="180" y="707"/>
      <point x="83" y="707" type="curve"/>
      <point x="83" y="733" type="line"/>
      <point x="231" y="731"/>
      <point x="417" y="662"/>
      <point x="341" y="535" type="curve" smooth="yes"/>
      <point x="276" y="426" type="line" smooth="yes"/>
      <point x="236" y="358"/>
      <point x="280" y="325"/>
      <point x="412" y="309" type="curve"/>
      <point x="412" y="283" type="line"/>
      <point x="280" y="267"/>
      <point x="241" y="224"/>
      <point x="282" y="156" type="curve" smooth="yes"/>
      <point x="341" y="57" type="line" smooth="yes"/>
      <point x="415" y="-67"/>
      <point x="240" y="-139"/>
    </contour>
  </outline>
</glyph>
<glyph name="asciitilde" format="2">
  <advance width="500"/>
  <unicode hex="007E"/>
  <outline>
    <contour>
      <point x="93" y="220" type="curve"/>
      <point x="73" y="227" type="line"/>
      <point x="100" y="308"/>
      <point x="136" y="346"/>
      <point x="187" y="346" type="curve" smooth="yes"/>
      <point x="210" y="346"/>
      <point x="233" y="340"/>
      <point x="267" y="327" type="curve" smooth="yes"/>
      <point x="315" y="308"/>
      <point x="336" y="301"/>
      <point x="354" y="301" type="curve" smooth="yes"/>
      <point x="380" y="301"/>
      <point x="396" y="316"/>
      <point x="407" y="351" type="curve"/>
      <point x="427" y="343" type="line"/>
      <point x="401" y="262"/>
      <point x="364" y="223"/>
      <point x="314" y="223" type="curve" smooth="yes"/>
      <point x="293" y="223"/>
      <point x="275" y="228"/>
      <point x="225" y="247" type="curve" smooth="yes"/>
      <point x="177" y="265"/>
      <point x="162" y="270"/>
      <point x="147" y="270" type="curve" smooth="yes"/>
      <point x="121" y="270"/>
      <point x="105" y="255"/>
    </contour>
  </outline>
</glyph>
